<svg width="67" height="64" viewBox="0 0 67 64" fill="none" xmlns="http://www.w3.org/2000/svg">
<path d="M43.7254 0.000976562L60.3697 12.0294L66.765 31.5437L60.4687 51.0903L43.8857 63.203L23.3501 63.255L6.70591 51.2267L0.310547 31.7123L6.60686 12.1657L23.1899 0.0530518L43.7254 0.000976562Z" fill="#FFD800"/>
<mask id="mask0_1072_164" style="mask-type:alpha" maskUnits="userSpaceOnUse" x="0" y="0" width="67" height="64">
<path d="M43.5295 0.224808L60.235 12.1679L66.7302 31.6493L60.534 51.2278L44.0131 63.4251L23.4781 63.5823L6.77254 51.6392L0.277404 32.1578L6.47362 12.5793L22.9944 0.381958L43.5295 0.224808Z" fill="#14BB69"/>
</mask>
<g mask="url(#mask0_1072_164)">
<path d="M32.6527 9.48127C32.9617 9.21258 33.4214 9.21258 33.7303 9.48127V9.48127C34.01 9.72453 34.4181 9.7502 34.7261 9.54392V9.54392C35.0663 9.31607 35.5224 9.37369 35.7952 9.67898V9.67898C36.0422 9.95538 36.4438 10.032 36.7752 9.86594V9.86594C37.1413 9.68253 37.5866 9.79685 37.819 10.1339V10.1339C38.0295 10.4391 38.4183 10.5654 38.7679 10.4422V10.4422C39.1541 10.3062 39.5815 10.4754 39.7699 10.839V10.839C39.9404 11.1681 40.3103 11.3422 40.6726 11.2638V11.2638C41.0728 11.1771 41.4757 11.3986 41.617 11.7829V11.7829C41.7449 12.1308 42.0901 12.3499 42.4594 12.3175V12.3175C42.8673 12.2817 43.2392 12.552 43.3312 12.9509V12.9509C43.4145 13.3121 43.7295 13.5727 44.0999 13.5869V13.5869C44.5091 13.6025 44.8442 13.9172 44.8855 14.3246V14.3246C44.9229 14.6934 45.2028 14.9914 45.5685 15.0519V15.0519C45.9725 15.1187 46.2655 15.4729 46.2554 15.8822V15.8822C46.2463 16.2528 46.4866 16.5836 46.8418 16.6894V16.6894C47.2343 16.8063 47.4806 17.1944 47.4193 17.5993V17.5993C47.3638 17.9658 47.5607 18.3241 47.8999 18.4736V18.4736C48.2746 18.6387 48.4703 19.0547 48.3588 19.4487V19.4487C48.2578 19.8053 48.4083 20.1854 48.726 20.3763V20.3763C49.0771 20.5871 49.2191 21.0243 49.0591 21.4012V21.4012C48.9141 21.7424 49.0158 22.1384 49.3072 22.3676V22.3676C49.629 22.6207 49.7151 23.0723 49.5091 23.4261V23.4261C49.3226 23.7465 49.3738 24.1521 49.6342 24.416V24.416C49.9217 24.7074 49.9506 25.1662 49.7018 25.4915V25.4915C49.4766 25.7859 49.4766 26.1947 49.7018 26.4892V26.4892C49.9506 26.8144 49.9217 27.2732 49.6342 27.5647V27.5647C49.3738 27.8286 49.3226 28.2342 49.5091 28.5545V28.5545C49.7151 28.9084 49.629 29.3599 49.3072 29.6131V29.6131C49.0158 29.8423 48.9141 30.2383 49.0591 30.5795V30.5795C49.2191 30.9563 49.0771 31.3935 48.726 31.6044V31.6044C48.4083 31.7952 48.2578 32.1753 48.3588 32.532V32.532C48.4703 32.926 48.2746 33.3419 47.8999 33.5071V33.5071C47.5607 33.6566 47.3638 34.0149 47.4193 34.3814V34.3814C47.4806 34.7862 47.2343 35.1744 46.8418 35.2913V35.2913C46.4866 35.3971 46.2463 35.7278 46.2554 36.0984V36.0984C46.2655 36.5078 45.9725 36.862 45.5685 36.9288V36.9288C45.2028 36.9892 44.9229 37.2873 44.8855 37.6561V37.6561C44.8442 38.0634 44.5091 38.3781 44.0999 38.3938V38.3938C43.7295 38.4079 43.4145 38.6685 43.3312 39.0297V39.0297C43.2392 39.4287 42.8673 39.6989 42.4594 39.6632V39.6632C42.0901 39.6308 41.7449 39.8498 41.617 40.1977V40.1977C41.4757 40.5821 41.0728 40.8035 40.6726 40.7169V40.7169C40.3103 40.6385 39.9404 40.8126 39.7699 41.1417V41.1417C39.5815 41.5053 39.1541 41.6745 38.7679 41.5384V41.5384C38.4183 41.4152 38.0295 41.5416 37.819 41.8467V41.8467C37.5866 42.1838 37.1413 42.2981 36.7752 42.1147V42.1147C36.4438 41.9487 36.0422 42.0253 35.7952 42.3017V42.3017C35.5224 42.607 35.0663 42.6646 34.7261 42.4367V42.4367C34.4181 42.2305 34.01 42.2561 33.7303 42.4994V42.4994C33.4214 42.7681 32.9617 42.7681 32.6527 42.4994V42.4994C32.373 42.2561 31.9649 42.2305 31.6569 42.4367V42.4367C31.3167 42.6646 30.8607 42.607 30.5878 42.3017V42.3017C30.3408 42.0253 29.9392 41.9487 29.6078 42.1147V42.1147C29.2417 42.2981 28.7964 42.1838 28.564 41.8467V41.8467C28.3535 41.5416 27.9647 41.4152 27.6151 41.5384V41.5384C27.2289 41.6745 26.8015 41.5053 26.6131 41.1417V41.1417C26.4426 40.8126 26.0727 40.6385 25.7104 40.7169V40.7169C25.3102 40.8035 24.9073 40.5821 24.766 40.1977V40.1977C24.6381 39.8498 24.2929 39.6308 23.9236 39.6632V39.6632C23.5157 39.6989 23.1438 39.4287 23.0518 39.0297V39.0297C22.9685 38.6685 22.6535 38.4079 22.2831 38.3938V38.3938C21.8739 38.3781 21.5388 38.0634 21.4975 37.6561V37.6561C21.4601 37.2873 21.1802 36.9892 20.8145 36.9288V36.9288C20.4105 36.862 20.1175 36.5078 20.1276 36.0984V36.0984C20.1367 35.7278 19.8964 35.3971 19.5412 35.2913V35.2913C19.1487 35.1744 18.9024 34.7862 18.9637 34.3814V34.3814C19.0192 34.0149 18.8223 33.6566 18.4831 33.5071V33.5071C18.1084 33.3419 17.9127 32.926 18.0242 32.532V32.532C18.1252 32.1753 17.9747 31.7952 17.657 31.6044V31.6044C17.3059 31.3935 17.1639 30.9563 17.324 30.5795V30.5795C17.4689 30.2383 17.3672 29.8423 17.0758 29.6131V29.6131C16.754 29.3599 16.6679 28.9084 16.8739 28.5545V28.5545C17.0604 28.2342 17.0092 27.8286 16.7489 27.5647V27.5647C16.4613 27.2732 16.4324 26.8144 16.6812 26.4892V26.4892C16.9064 26.1947 16.9064 25.7859 16.6812 25.4915V25.4915C16.4324 25.1662 16.4613 24.7074 16.7489 24.416V24.416C17.0092 24.1521 17.0604 23.7465 16.8739 23.4261V23.4261C16.6679 23.0723 16.754 22.6207 17.0758 22.3676V22.3676C17.3672 22.1384 17.4689 21.7424 17.324 21.4012V21.4012C17.1639 21.0243 17.3059 20.5871 17.657 20.3763V20.3763C17.9747 20.1854 18.1252 19.8053 18.0242 19.4487V19.4487C17.9127 19.0547 18.1084 18.6387 18.4831 18.4736V18.4736C18.8223 18.3241 19.0192 17.9658 18.9637 17.5993V17.5993C18.9024 17.1944 19.1487 16.8063 19.5412 16.6894V16.6894C19.8964 16.5836 20.1367 16.2528 20.1276 15.8822V15.8822C20.1175 15.4729 20.4105 15.1187 20.8145 15.0519V15.0519C21.1802 14.9914 21.4601 14.6934 21.4975 14.3246V14.3246C21.5388 13.9172 21.8739 13.6025 22.2831 13.5869V13.5869C22.6535 13.5727 22.9685 13.3121 23.0518 12.9509V12.9509C23.1438 12.552 23.5157 12.2817 23.9236 12.3175V12.3175C24.2929 12.3499 24.6381 12.1308 24.766 11.7829V11.7829C24.9073 11.3986 25.3102 11.1771 25.7104 11.2638V11.2638C26.0727 11.3422 26.4426 11.1681 26.6131 10.839V10.839C26.8015 10.4754 27.2289 10.3062 27.6151 10.4422V10.4422C27.9647 10.5654 28.3535 10.4391 28.564 10.1339V10.1339C28.7964 9.79685 29.2417 9.68253 29.6078 9.86594V9.86594C29.9392 10.032 30.3408 9.95538 30.5878 9.67898V9.67898C30.8607 9.37369 31.3167 9.31607 31.6569 9.54392V9.54392C31.9649 9.7502 32.373 9.72453 32.6527 9.48127V9.48127Z" fill="#575757"/>
<path d="M33.0775 9.90413C33.3865 9.63543 33.8462 9.63543 34.1551 9.90413V9.90413C34.4349 10.1474 34.8429 10.173 35.1509 9.96677V9.96677C35.4911 9.73892 35.9472 9.79654 36.22 10.1018V10.1018C36.467 10.3782 36.8686 10.4548 37.2 10.2888V10.2888C37.5661 10.1054 38.0114 10.2197 38.2438 10.5568V10.5568C38.4543 10.862 38.8431 10.9883 39.1927 10.8651V10.8651C39.5789 10.729 40.0063 10.8982 40.1947 11.2618V11.2618C40.3652 11.5909 40.7351 11.765 41.0974 11.6866V11.6866C41.4976 11.6 41.9005 11.8215 42.0418 12.2058V12.2058C42.1697 12.5537 42.5149 12.7727 42.8842 12.7404V12.7404C43.2921 12.7046 43.664 12.9748 43.756 13.3738V13.3738C43.8393 13.735 44.1543 13.9956 44.5248 14.0097V14.0097C44.9339 14.0254 45.269 14.3401 45.3103 14.7474V14.7474C45.3477 15.1163 45.6276 15.4143 45.9933 15.4747V15.4747C46.3973 15.5415 46.6903 15.8957 46.6802 16.3051V16.3051C46.6711 16.6757 46.9114 17.0064 47.2667 17.1122V17.1122C47.6591 17.2291 47.9054 17.6173 47.8441 18.0221V18.0221C47.7886 18.3886 47.9855 18.7469 48.3247 18.8964V18.8964C48.6994 19.0616 48.8951 19.4775 48.7836 19.8715V19.8715C48.6826 20.2282 48.8331 20.6083 49.1509 20.7992V20.7992C49.5019 21.01 49.6439 21.4472 49.4839 21.8241V21.8241C49.339 22.1653 49.4406 22.5612 49.732 22.7904V22.7904C50.0538 23.0436 50.1399 23.4951 49.9339 23.849V23.849C49.7474 24.1693 49.7986 24.5749 50.059 24.8388V24.8388C50.3465 25.1303 50.3754 25.5891 50.1266 25.9143V25.9143C49.9014 26.2088 49.9014 26.6176 50.1266 26.912V26.912C50.3754 27.2373 50.3465 27.6961 50.059 27.9876V27.9876C49.7986 28.2514 49.7474 28.657 49.9339 28.9774V28.9774C50.1399 29.3312 50.0538 29.7828 49.732 30.0359V30.0359C49.4406 30.2651 49.339 30.6611 49.4839 31.0023V31.0023C49.6439 31.3792 49.5019 31.8164 49.1509 32.0272V32.0272C48.8331 32.2181 48.6826 32.5982 48.7836 32.9549V32.9549C48.8951 33.3488 48.6994 33.7648 48.3247 33.9299V33.9299C47.9855 34.0795 47.7886 34.4377 47.8441 34.8042V34.8042C47.9054 35.2091 47.6591 35.5972 47.2667 35.7141V35.7141C46.9114 35.82 46.6711 36.1507 46.6802 36.5213V36.5213C46.6903 36.9306 46.3973 37.2848 45.9933 37.3516V37.3516C45.6276 37.4121 45.3477 37.7101 45.3103 38.0789V38.0789C45.269 38.4863 44.9339 38.801 44.5248 38.8166V38.8166C44.1543 38.8308 43.8393 39.0914 43.756 39.4526V39.4526C43.664 39.8516 43.2921 40.1218 42.8842 40.086V40.086C42.5149 40.0536 42.1697 40.2727 42.0418 40.6206V40.6206C41.9005 41.0049 41.4976 41.2264 41.0974 41.1398V41.1398C40.7351 41.0614 40.3652 41.2354 40.1947 41.5646V41.5646C40.0063 41.9281 39.5789 42.0974 39.1927 41.9613V41.9613C38.8431 41.8381 38.4543 41.9644 38.2438 42.2696V42.2696C38.0114 42.6067 37.5661 42.721 37.2 42.5376V42.5376C36.8686 42.3715 36.467 42.4481 36.22 42.7245V42.7245C35.9472 43.0298 35.4911 43.0874 35.1509 42.8596V42.8596C34.8429 42.6533 34.4348 42.679 34.1551 42.9222V42.9222C33.8462 43.1909 33.3865 43.1909 33.0775 42.9222V42.9222C32.7978 42.679 32.3897 42.6533 32.0817 42.8596V42.8596C31.7415 43.0874 31.2855 43.0298 31.0126 42.7245V42.7245C30.7656 42.4481 30.364 42.3715 30.0326 42.5376V42.5376C29.6665 42.721 29.2212 42.6067 28.9888 42.2696V42.2696C28.7783 41.9644 28.3895 41.8381 28.0399 41.9613V41.9613C27.6537 42.0974 27.2263 41.9281 27.0379 41.5646V41.5646C26.8674 41.2354 26.4975 41.0614 26.1352 41.1398V41.1398C25.735 41.2264 25.3321 41.0049 25.1908 40.6206V40.6206C25.0629 40.2727 24.7177 40.0536 24.3484 40.086V40.086C23.9405 40.1218 23.5686 39.8516 23.4766 39.4526V39.4526C23.3933 39.0914 23.0783 38.8308 22.7079 38.8166V38.8166C22.2987 38.801 21.9636 38.4863 21.9223 38.0789V38.0789C21.8849 37.7101 21.605 37.4121 21.2393 37.3516V37.3516C20.8353 37.2848 20.5423 36.9306 20.5524 36.5213V36.5213C20.5615 36.1507 20.3212 35.82 19.966 35.7141V35.7141C19.5735 35.5972 19.3272 35.2091 19.3885 34.8042V34.8042C19.444 34.4377 19.2471 34.0795 18.9079 33.9299V33.9299C18.5332 33.7648 18.3375 33.3488 18.449 32.9549V32.9549C18.5501 32.5982 18.3996 32.2181 18.0818 32.0272V32.0272C17.7307 31.8164 17.5887 31.3792 17.7488 31.0023V31.0023C17.8937 30.6611 17.792 30.2651 17.5006 30.0359V30.0359C17.1788 29.7828 17.0927 29.3312 17.2987 28.9774V28.9774C17.4852 28.657 17.434 28.2514 17.1737 27.9876V27.9876C16.8861 27.6961 16.8572 27.2373 17.106 26.912V26.912C17.3312 26.6176 17.3312 26.2088 17.106 25.9143V25.9143C16.8572 25.5891 16.8861 25.1303 17.1737 24.8388V24.8388C17.434 24.5749 17.4852 24.1693 17.2987 23.849V23.849C17.0927 23.4951 17.1788 23.0436 17.5006 22.7904V22.7904C17.792 22.5612 17.8937 22.1653 17.7488 21.8241V21.8241C17.5887 21.4472 17.7307 21.01 18.0818 20.7992V20.7992C18.3996 20.6083 18.5501 20.2282 18.449 19.8715V19.8715C18.3375 19.4775 18.5332 19.0616 18.9079 18.8964V18.8964C19.2471 18.7469 19.444 18.3886 19.3885 18.0221V18.0221C19.3272 17.6173 19.5735 17.2291 19.966 17.1122V17.1122C20.3212 17.0064 20.5615 16.6757 20.5524 16.3051V16.3051C20.5423 15.8957 20.8353 15.5415 21.2393 15.4747V15.4747C21.605 15.4143 21.8849 15.1163 21.9223 14.7474V14.7474C21.9636 14.3401 22.2987 14.0254 22.7079 14.0097V14.0097C23.0783 13.9956 23.3933 13.735 23.4766 13.3738V13.3738C23.5686 12.9748 23.9405 12.7046 24.3484 12.7404V12.7404C24.7177 12.7727 25.0629 12.5537 25.1908 12.2058V12.2058C25.3321 11.8215 25.735 11.6 26.1352 11.6866V11.6866C26.4975 11.765 26.8674 11.5909 27.0379 11.2618V11.2618C27.2263 10.8982 27.6537 10.729 28.0399 10.8651V10.8651C28.3895 10.9883 28.7783 10.862 28.9888 10.5568V10.5568C29.2212 10.2197 29.6665 10.1054 30.0326 10.2888V10.2888C30.364 10.4548 30.7656 10.3782 31.0126 10.1018V10.1018C31.2855 9.79654 31.7415 9.73892 32.0817 9.96677V9.96677C32.3897 10.173 32.7978 10.1474 33.0775 9.90413V9.90413Z" fill="black"/>
<rect x="27.0107" y="33.8428" width="12.4149" height="17.5878" fill="#562F30"/>
<g filter="url(#filter0_d_1072_164)">
<ellipse cx="33.6166" cy="28.112" rx="9.76214" ry="10.611" fill="#5A312F"/>
</g>
<path d="M16.7155 47.9987C13.1002 48.2227 10.9271 52.9457 9.5 55.2791L23.0821 67.3993H44.7286L59.1596 55.2792C56.6859 50.1269 53.6419 48.0243 51.0952 47.9987C41.819 47.9054 20.3308 47.7747 16.7155 47.9987Z" fill="url(#paint0_linear_1072_164)"/>
</g>
<defs>
<filter id="filter0_d_1072_164" x="19.8545" y="17.501" width="27.5244" height="29.2217" filterUnits="userSpaceOnUse" color-interpolation-filters="sRGB">
<feFlood flood-opacity="0" result="BackgroundImageFix"/>
<feColorMatrix in="SourceAlpha" type="matrix" values="0 0 0 0 0 0 0 0 0 0 0 0 0 0 0 0 0 0 127 0" result="hardAlpha"/>
<feOffset dy="4"/>
<feGaussianBlur stdDeviation="2"/>
<feComposite in2="hardAlpha" operator="out"/>
<feColorMatrix type="matrix" values="0 0 0 0 0 0 0 0 0 0 0 0 0 0 0 0 0 0 0.5 0"/>
<feBlend mode="normal" in2="BackgroundImageFix" result="effect1_dropShadow_1072_164"/>
<feBlend mode="normal" in="SourceGraphic" in2="effect1_dropShadow_1072_164" result="shape"/>
</filter>
<linearGradient id="paint0_linear_1072_164" x1="26.0709" y1="54.5048" x2="21.1031" y2="67.3672" gradientUnits="userSpaceOnUse">
<stop stop-color="#5E2DA0"/>
<stop offset="1" stop-color="#FFDE00"/>
</linearGradient>
</defs>
</svg>
