<svg width="65" height="62" viewBox="0 0 65 62" fill="none" xmlns="http://www.w3.org/2000/svg">
<path d="M42.2643 0.00195312L58.3523 11.6283L64.5339 30.4906L58.448 49.3839L42.4192 61.0918L22.5699 61.1421L6.48193 49.5157L0.300293 30.6535L6.38619 11.7601L22.415 0.052288L42.2643 0.00195312Z" fill="#0CC16C"/>
<mask id="mask0_995_207" style="mask-type:alpha" maskUnits="userSpaceOnUse" x="0" y="0" width="65" height="62">
<path d="M42.0747 0.217281L58.222 11.7612L64.5001 30.5916L58.5109 49.5158L42.5422 61.3055L22.6935 61.4574L6.5462 49.9135L0.268134 31.0831L6.25728 12.1589L22.226 0.369178L42.0747 0.217281Z" fill="#14BB69"/>
</mask>
<g mask="url(#mask0_995_207)">
<path d="M31.5618 9.16483C31.8604 8.90512 32.3048 8.90512 32.6034 9.16483C32.8738 9.39996 33.2682 9.42477 33.5659 9.22539C33.8947 9.00515 34.3356 9.06084 34.5993 9.35594C34.8381 9.62309 35.2262 9.69714 35.5466 9.53664C35.9004 9.35936 36.3308 9.46986 36.5555 9.79568C36.7589 10.0907 37.1347 10.2128 37.4727 10.0937C37.8459 9.96215 38.2591 10.1257 38.4411 10.4771C38.606 10.7953 38.9635 10.9635 39.3137 10.8877C39.7006 10.804 40.0899 11.0181 40.2265 11.3896C40.3502 11.7258 40.6838 11.9376 41.0408 11.9063C41.435 11.8717 41.7945 12.1329 41.8835 12.5185C41.964 12.8677 42.2685 13.1196 42.6265 13.1332C43.022 13.1484 43.3459 13.4525 43.3858 13.8463C43.422 14.2028 43.6925 14.4908 44.046 14.5493C44.4365 14.6138 44.7197 14.9562 44.7099 15.3519C44.7011 15.7101 44.9334 16.0298 45.2768 16.1321C45.6561 16.2451 45.8942 16.6202 45.8349 17.0115C45.7813 17.3658 45.9716 17.7121 46.2995 17.8566C46.6616 18.0163 46.8508 18.4183 46.743 18.7991C46.6454 19.1439 46.7908 19.5113 47.098 19.6958C47.4373 19.8995 47.5746 20.3221 47.4199 20.6864C47.2798 21.0162 47.3781 21.3989 47.6597 21.6205C47.9708 21.8652 48.054 22.3016 47.8549 22.6437C47.6746 22.9533 47.7241 23.3453 47.9758 23.6004C48.2537 23.8822 48.2816 24.3256 48.0412 24.64C47.8235 24.9246 47.8235 25.3198 48.0412 25.6044C48.2816 25.9187 48.2537 26.3622 47.9758 26.6439C47.7241 26.899 47.6746 27.291 47.8549 27.6007C48.054 27.9427 47.9708 28.3792 47.6597 28.6239C47.3781 28.8454 47.2798 29.2281 47.4199 29.5579C47.5746 29.9222 47.4373 30.3448 47.098 30.5486C46.7908 30.7331 46.6454 31.1005 46.743 31.4452C46.8508 31.826 46.6616 32.2281 46.2995 32.3877C45.9716 32.5322 45.7813 32.8785 45.8349 33.2328C45.8942 33.6241 45.6561 33.9993 45.2768 34.1123C44.9334 34.2146 44.7011 34.5343 44.7099 34.8925C44.7197 35.2881 44.4365 35.6305 44.046 35.6951C43.6925 35.7535 43.422 36.0416 43.3858 36.398C43.3459 36.7918 43.022 37.096 42.6265 37.1111C42.2685 37.1248 41.964 37.3767 41.8835 37.7258C41.7945 38.1114 41.435 38.3726 41.0408 38.3381C40.6838 38.3068 40.3502 38.5185 40.2265 38.8548C40.0899 39.2262 39.7006 39.4403 39.3137 39.3566C38.9635 39.2808 38.606 39.4491 38.4411 39.7672C38.2591 40.1186 37.8459 40.2822 37.4727 40.1507C37.1347 40.0316 36.7589 40.1537 36.5555 40.4487C36.3308 40.7745 35.9004 40.885 35.5466 40.7077C35.2262 40.5472 34.8381 40.6212 34.5993 40.8884C34.3356 41.1835 33.8947 41.2392 33.5659 41.019C33.2682 40.8196 32.8738 40.8444 32.6034 41.0795C32.3048 41.3392 31.8604 41.3392 31.5618 41.0795C31.2914 40.8444 30.8971 40.8196 30.5993 41.019C30.2705 41.2392 29.8297 41.1835 29.5659 40.8884C29.3272 40.6212 28.939 40.5472 28.6186 40.7077C28.2648 40.885 27.8344 40.7745 27.6097 40.4487C27.4063 40.1537 27.0305 40.0316 26.6926 40.1507C26.3193 40.2822 25.9062 40.1186 25.7241 39.7672C25.5593 39.4491 25.2017 39.2808 24.8515 39.3566C24.4647 39.4403 24.0753 39.2262 23.9387 38.8548C23.8151 38.5185 23.4814 38.3068 23.1245 38.3381C22.7302 38.3726 22.3707 38.1114 22.2818 37.7258C22.2013 37.3767 21.8968 37.1248 21.5387 37.1111C21.1432 37.096 20.8193 36.7918 20.7794 36.398C20.7433 36.0416 20.4728 35.7535 20.1193 35.6951C19.7288 35.6305 19.4456 35.2881 19.4553 34.8925C19.4641 34.5343 19.2319 34.2146 18.8885 34.1123C18.5092 33.9993 18.2711 33.6241 18.3303 33.2328C18.384 32.8785 18.1936 32.5322 17.8657 32.3877C17.5036 32.2281 17.3144 31.826 17.4222 31.4452C17.5199 31.1005 17.3744 30.7331 17.0672 30.5486C16.7279 30.3448 16.5906 29.9222 16.7453 29.5579C16.8854 29.2281 16.7871 28.8454 16.5055 28.6239C16.1944 28.3792 16.1112 27.9427 16.3103 27.6007C16.4906 27.291 16.4411 26.899 16.1895 26.6439C15.9115 26.3622 15.8836 25.9187 16.1241 25.6044C16.3418 25.3198 16.3418 24.9246 16.1241 24.64C15.8836 24.3256 15.9115 23.8822 16.1895 23.6004C16.4411 23.3453 16.4906 22.9533 16.3103 22.6437C16.1112 22.3016 16.1944 21.8652 16.5055 21.6205C16.7871 21.3989 16.8854 21.0162 16.7453 20.6864C16.5906 20.3221 16.7279 19.8995 17.0672 19.6958C17.3744 19.5113 17.5199 19.1439 17.4222 18.7991C17.3144 18.4183 17.5036 18.0163 17.8657 17.8566C18.1936 17.7121 18.384 17.3658 18.3303 17.0115C18.2711 16.6202 18.5092 16.2451 18.8885 16.1321C19.2319 16.0298 19.4641 15.7101 19.4553 15.3519C19.4456 14.9562 19.7288 14.6138 20.1193 14.5493C20.4728 14.4908 20.7433 14.2028 20.7794 13.8463C20.8193 13.4525 21.1432 13.1484 21.5387 13.1332C21.8968 13.1196 22.2013 12.8677 22.2818 12.5185C22.3707 12.1329 22.7302 11.8717 23.1245 11.9063C23.4814 11.9376 23.8151 11.7258 23.9387 11.3896C24.0753 11.0181 24.4647 10.804 24.8515 10.8877C25.2017 10.9635 25.5593 10.7953 25.7241 10.4771C25.9062 10.1257 26.3193 9.96215 26.6926 10.0937C27.0305 10.2128 27.4063 10.0907 27.6097 9.79568C27.8344 9.46986 28.2648 9.35936 28.6186 9.53664C28.939 9.69714 29.3272 9.62309 29.5659 9.35594C29.8297 9.06084 30.2705 9.00515 30.5993 9.22539C30.8971 9.42477 31.2914 9.39996 31.5618 9.16483Z" fill="#575757"/>
<path d="M31.972 9.57401C32.2706 9.3143 32.7149 9.3143 33.0136 9.57401C33.284 9.80914 33.6783 9.83395 33.9761 9.63457C34.3049 9.41433 34.7457 9.47002 35.0095 9.76512C35.2482 10.0323 35.6364 10.1063 35.9568 9.94582C36.3106 9.76854 36.741 9.87904 36.9657 10.2049C37.1691 10.4998 37.5449 10.622 37.8828 10.5029C38.2561 10.3713 38.6692 10.5349 38.8513 10.8863C39.0161 11.2045 39.3737 11.3727 39.7239 11.2969C40.1107 11.2132 40.5001 11.4273 40.6367 11.7987C40.7603 12.135 41.094 12.3468 41.4509 12.3155C41.8452 12.2809 42.2047 12.5421 42.2936 12.9277C42.3741 13.2769 42.6786 13.5287 43.0367 13.5424C43.4322 13.5575 43.7561 13.8617 43.796 14.2555C43.8321 14.612 44.1026 14.9 44.4561 14.9585C44.8466 15.023 45.1298 15.3654 45.1201 15.7611C45.1113 16.1193 45.3435 16.4389 45.6869 16.5412C46.0662 16.6542 46.3043 17.0294 46.2451 17.4207C46.1914 17.775 46.3818 18.1213 46.7097 18.2658C47.0718 18.4254 47.261 18.8275 47.1532 19.2083C47.0555 19.553 47.201 19.9205 47.5082 20.1049C47.8474 20.3087 47.9848 20.7313 47.83 21.0956C47.69 21.4254 47.7882 21.8081 48.0699 22.0297C48.3809 22.2743 48.4642 22.7108 48.2651 23.0528C48.0848 23.3625 48.1343 23.7545 48.3859 24.0096C48.6639 24.2913 48.6918 24.7348 48.4513 25.0492C48.2336 25.3338 48.2336 25.7289 48.4513 26.0135C48.6918 26.3279 48.6639 26.7714 48.3859 27.0531C48.1343 27.3082 48.0848 27.7002 48.2651 28.0099C48.4642 28.3519 48.3809 28.7884 48.0699 29.033C47.7882 29.2546 47.69 29.6373 47.83 29.9671C47.9848 30.3314 47.8474 30.754 47.5082 30.9578C47.201 31.1422 47.0555 31.5097 47.1532 31.8544C47.261 32.2352 47.0718 32.6373 46.7097 32.7969C46.3818 32.9414 46.1914 33.2877 46.2451 33.642C46.3043 34.0333 46.0662 34.4085 45.6869 34.5215C45.3435 34.6238 45.1113 34.9434 45.1201 35.3016C45.1298 35.6973 44.8466 36.0397 44.4561 36.1042C44.1026 36.1627 43.8321 36.4507 43.796 36.8072C43.7561 37.201 43.4322 37.5052 43.0367 37.5203C42.6786 37.534 42.3741 37.7858 42.2936 38.135C42.2047 38.5206 41.8452 38.7818 41.4509 38.7472C41.094 38.7159 40.7603 38.9277 40.6367 39.264C40.5001 39.6354 40.1107 39.8495 39.7239 39.7658C39.3737 39.69 39.0161 39.8582 38.8513 40.1764C38.6692 40.5278 38.2561 40.6914 37.8828 40.5598C37.5449 40.4407 37.1691 40.5629 36.9657 40.8578C36.741 41.1837 36.3106 41.2942 35.9567 41.1169C35.6364 40.9564 35.2482 41.0304 35.0095 41.2976C34.7457 41.5927 34.3049 41.6484 33.9761 41.4281C33.6783 41.2287 33.284 41.2536 33.0136 41.4887C32.7149 41.7484 32.2706 41.7484 31.972 41.4887C31.7016 41.2536 31.3072 41.2287 31.0095 41.4281C30.6807 41.6484 30.2398 41.5927 29.9761 41.2976C29.7373 41.0304 29.3492 40.9564 29.0288 41.1169C28.675 41.2942 28.2446 41.1837 28.0199 40.8578C27.8165 40.5629 27.4407 40.4407 27.1027 40.5598C26.7295 40.6914 26.3163 40.5278 26.1342 40.1764C25.9694 39.8582 25.6119 39.69 25.2617 39.7658C24.8748 39.8495 24.4855 39.6354 24.3489 39.264C24.2252 38.9277 23.8916 38.7159 23.5346 38.7472C23.1404 38.7818 22.7809 38.5206 22.6919 38.135C22.6114 37.7858 22.3069 37.534 21.9489 37.5203C21.5534 37.5052 21.2295 37.201 21.1896 36.8072C21.1534 36.4507 20.8829 36.1627 20.5294 36.1042C20.1389 36.0397 19.8557 35.6973 19.8655 35.3016C19.8743 34.9434 19.642 34.6238 19.2986 34.5215C18.9193 34.4085 18.6812 34.0333 18.7405 33.642C18.7941 33.2877 18.6038 32.9414 18.2759 32.7969C17.9137 32.6373 17.7246 32.2352 17.8324 31.8544C17.93 31.5097 17.7846 31.1422 17.4774 30.9578C17.1381 30.754 17.0008 30.3314 17.1555 29.9671C17.2956 29.6373 17.1973 29.2546 16.9157 29.033C16.6046 28.7884 16.5213 28.3519 16.7205 28.0099C16.9008 27.7002 16.8513 27.3082 16.5996 27.0531C16.3217 26.7714 16.2938 26.3279 16.5342 26.0135C16.7519 25.7289 16.7519 25.3338 16.5342 25.0492C16.2938 24.7348 16.3217 24.2913 16.5996 24.0096C16.8513 23.7545 16.9008 23.3625 16.7205 23.0528C16.5213 22.7108 16.6046 22.2743 16.9157 22.0297C17.1973 21.8081 17.2956 21.4254 17.1555 21.0956C17.0008 20.7313 17.1381 20.3087 17.4774 20.1049C17.7846 19.9205 17.93 19.553 17.8324 19.2083C17.7246 18.8275 17.9137 18.4254 18.2759 18.2658C18.6038 18.1213 18.7941 17.775 18.7405 17.4207C18.6812 17.0294 18.9193 16.6542 19.2986 16.5412C19.642 16.4389 19.8743 16.1193 19.8655 15.7611C19.8557 15.3654 20.1389 15.023 20.5294 14.9585C20.8829 14.9 21.1534 14.612 21.1896 14.2555C21.2295 13.8617 21.5534 13.5575 21.9489 13.5424C22.3069 13.5287 22.6114 13.2769 22.6919 12.9277C22.7809 12.5421 23.1404 12.2809 23.5346 12.3155C23.8916 12.3468 24.2252 12.135 24.3489 11.7987C24.4855 11.4273 24.8748 11.2132 25.2617 11.2969C25.6119 11.3727 25.9694 11.2045 26.1342 10.8863C26.3163 10.5349 26.7295 10.3713 27.1027 10.5029C27.4407 10.622 27.8165 10.4998 28.0199 10.2049C28.2446 9.87904 28.675 9.76854 29.0288 9.94582C29.3491 10.1063 29.7373 10.0323 29.9761 9.76512C30.2398 9.47002 30.6807 9.41433 31.0095 9.63457C31.3072 9.83395 31.7016 9.80914 31.972 9.57401Z" fill="black"/>
<rect x="26.1084" y="32.7119" width="12" height="17" fill="#562F30"/>
<g filter="url(#filter0_d_995_207)">
<ellipse cx="32.493" cy="27.1734" rx="9.4359" ry="10.2564" fill="#5A312F"/>
</g>
<path d="M16.0828 46.3949C12.5882 46.6115 10.4878 51.1766 9.1084 53.4321L22.2366 65.1472H43.1597L57.1084 53.4321C54.7174 48.452 51.7751 46.4197 49.3135 46.3949C40.3473 46.3047 19.5773 46.1784 16.0828 46.3949Z" fill="#5E2DA0"/>
</g>
<defs>
<filter id="filter0_d_995_207" x="19.0571" y="16.917" width="26.8716" height="28.5127" filterUnits="userSpaceOnUse" color-interpolation-filters="sRGB">
<feFlood flood-opacity="0" result="BackgroundImageFix"/>
<feColorMatrix in="SourceAlpha" type="matrix" values="0 0 0 0 0 0 0 0 0 0 0 0 0 0 0 0 0 0 127 0" result="hardAlpha"/>
<feOffset dy="4"/>
<feGaussianBlur stdDeviation="2"/>
<feComposite in2="hardAlpha" operator="out"/>
<feColorMatrix type="matrix" values="0 0 0 0 0 0 0 0 0 0 0 0 0 0 0 0 0 0 0.5 0"/>
<feBlend mode="normal" in2="BackgroundImageFix" result="effect1_dropShadow_995_207"/>
<feBlend mode="normal" in="SourceGraphic" in2="effect1_dropShadow_995_207" result="shape"/>
</filter>
</defs>
</svg>
