<svg width="201" height="201" viewBox="0 0 201 201" fill="none" xmlns="http://www.w3.org/2000/svg">
<mask id="mask0_984_57" style="mask-type:luminance" maskUnits="userSpaceOnUse" x="0" y="0" width="201" height="201">
<path d="M200.541 0.694336H0.458008V200.778H200.541V0.694336Z" fill="white"/>
<path d="M107.271 27.3917C103.051 25.1429 97.9409 25.1429 93.7217 27.3917L40.9541 55.5209C37.9614 57.1163 38.0249 61.4275 41.0635 62.9339L93.0897 88.728C97.7567 91.0415 103.236 91.0415 107.903 88.728L159.929 62.9339C162.967 61.4275 163.031 57.1163 160.038 55.5209L107.271 27.3917Z" fill="black"/>
</mask>
<g mask="url(#mask0_984_57)">
<path d="M92.489 9.24747C97.4786 6.51517 103.521 6.51517 108.511 9.24747L179.374 48.0576C184.715 50.9836 188.035 56.5894 188.036 62.6796V138.794C188.036 144.885 184.717 150.498 179.374 153.424L108.511 192.226C106.016 193.592 103.257 194.277 100.5 194.277C97.7429 194.277 94.9834 193.592 92.489 192.226L21.6258 153.424C16.2832 150.498 12.9634 144.885 12.9634 138.794V62.6796C12.9639 56.5894 16.2847 50.9836 21.6258 48.0576L92.489 9.24747Z" fill="url(#paint0_linear_984_57)"/>
</g>
<mask id="mask1_984_57" style="mask-type:luminance" maskUnits="userSpaceOnUse" x="38" y="25" width="125" height="66">
<path d="M107.271 27.3917C103.051 25.1429 97.9409 25.1429 93.7217 27.3917L40.9541 55.5209C37.9614 57.1163 38.0249 61.4275 41.0635 62.9339L93.0897 88.728C97.7567 91.0415 103.236 91.0415 107.903 88.728L159.929 62.9339C162.967 61.4275 163.031 57.1163 160.038 55.5209L107.271 27.3917Z" fill="white"/>
</mask>
<g mask="url(#mask1_984_57)">
<g filter="url(#filter0_f_984_57)">
<path d="M92.487 9.24747C97.4766 6.51517 103.519 6.51517 108.509 9.24747L179.372 48.0576C184.713 50.9836 188.034 56.5894 188.034 62.6796V138.794C188.034 144.885 184.715 150.498 179.372 153.424L108.509 192.226C106.014 193.592 103.255 194.277 100.498 194.277C97.7409 194.277 94.9814 193.592 92.487 192.226L21.6239 153.424C16.2812 150.498 12.9614 144.885 12.9614 138.794V62.6796C12.9619 56.5894 16.2827 50.9836 21.6239 48.0576L92.487 9.24747Z" fill="url(#paint1_linear_984_57)"/>
</g>
</g>
<path d="M107.271 27.3917C103.051 25.1429 97.9409 25.1429 93.7217 27.3917L40.9541 55.5209C37.9614 57.1163 38.0249 61.4275 41.0635 62.9339L93.0897 88.728C97.7567 91.0415 103.236 91.0415 107.903 88.728L159.929 62.9339C162.967 61.4275 163.031 57.1163 160.038 55.5209L107.271 27.3917Z" fill="url(#paint2_linear_984_57)"/>
<path d="M93.729 27.3912C97.9475 25.143 103.058 25.143 107.276 27.3912L160.041 55.5198C163.034 57.1152 162.974 61.4301 159.935 62.9366L107.912 88.729L106.12 89.486C102.489 90.7857 98.5169 90.7857 94.8854 89.486L93.0938 88.729L41.0705 62.9366C38.0319 61.4301 37.9718 57.1152 40.9647 55.5198L93.729 27.3912ZM104.338 32.9111C101.957 31.6422 99.0488 31.6422 96.6678 32.9111L47.4696 59.1346L95.8699 83.1273C98.787 84.5731 102.218 84.5731 105.135 83.1273L153.528 59.1346L104.338 32.9111Z" fill="url(#paint3_linear_984_57)"/>
<path d="M188.036 138.791C188.036 144.882 184.716 150.495 179.374 153.42L108.511 192.222C106.016 193.589 103.257 194.274 100.5 194.274V110.988C103.214 110.988 105.933 110.326 108.397 109.001L183.396 68.6929C185.637 67.4874 187.172 65.6609 188.036 63.6045V138.791Z" fill="url(#paint4_linear_984_57)"/>
<defs>
<filter id="filter0_f_984_57" x="-20.3858" y="-26.149" width="241.767" height="253.774" filterUnits="userSpaceOnUse" color-interpolation-filters="sRGB">
<feFlood flood-opacity="0" result="BackgroundImageFix"/>
<feBlend mode="normal" in="SourceGraphic" in2="BackgroundImageFix" result="shape"/>
<feGaussianBlur stdDeviation="16.6736" result="effect1_foregroundBlur_984_57"/>
</filter>
<linearGradient id="paint0_linear_984_57" x1="100.504" y1="7.18961" x2="100.504" y2="194.281" gradientUnits="userSpaceOnUse">
<stop stop-color="#3FDEC9"/>
<stop offset="1" stop-color="#178C7D"/>
</linearGradient>
<linearGradient id="paint1_linear_984_57" x1="100.502" y1="7.18961" x2="100.502" y2="194.281" gradientUnits="userSpaceOnUse">
<stop stop-color="#3FDEC9"/>
<stop offset="1" stop-color="#178C7D"/>
</linearGradient>
<linearGradient id="paint2_linear_984_57" x1="159.386" y1="27.2042" x2="115.639" y2="110.633" gradientUnits="userSpaceOnUse">
<stop stop-color="#E4FBF8"/>
<stop offset="1" stop-color="#22D3BB" stop-opacity="0.1"/>
</linearGradient>
<linearGradient id="paint3_linear_984_57" x1="100.503" y1="25.7051" x2="100.503" y2="63.2073" gradientUnits="userSpaceOnUse">
<stop stop-color="white"/>
<stop offset="1" stop-color="white" stop-opacity="0"/>
</linearGradient>
<linearGradient id="paint4_linear_984_57" x1="144.27" y1="63.5985" x2="144.27" y2="194.276" gradientUnits="userSpaceOnUse">
<stop stop-color="#3FDEC9"/>
<stop offset="1" stop-color="#178C7D"/>
</linearGradient>
</defs>
</svg>
