<svg width="106" height="106" viewBox="0 0 106 106" fill="none" xmlns="http://www.w3.org/2000/svg">
<path d="M53 0L63.6996 13.0686L79.5 7.10065L82.2318 23.7682L98.8993 26.5L92.9314 42.3004L106 53L92.9314 63.6996L98.8993 79.5L82.2318 82.2318L79.5 98.8993L63.6996 92.9314L53 106L42.3004 92.9314L26.5 98.8993L23.7682 82.2318L7.10065 79.5L13.0686 63.6996L0 53L13.0686 42.3004L7.10065 26.5L23.7682 23.7682L26.5 7.10065L42.3004 13.0686L53 0Z" fill="#00CE66"/>
<path d="M29 77H77" stroke="white" stroke-width="6" stroke-linecap="round" stroke-linejoin="round"/>
<path d="M29 47.2402H77" stroke="white" stroke-width="6" stroke-linecap="round" stroke-linejoin="round"/>
<path d="M34.76 36.68L53 29L71.24 36.68" stroke="white" stroke-width="6" stroke-linecap="round" stroke-linejoin="round"/>
<path d="M31.8799 47.2402V77.0002" stroke="white" stroke-width="6" stroke-linecap="round" stroke-linejoin="round"/>
<path d="M74.1201 47.2402V77.0002" stroke="white" stroke-width="6" stroke-linecap="round" stroke-linejoin="round"/>
<path d="M42.4399 58.7598V66.4398" stroke="white" stroke-width="6" stroke-linecap="round" stroke-linejoin="round"/>
<path d="M53 58.7598V66.4398" stroke="white" stroke-width="6" stroke-linecap="round" stroke-linejoin="round"/>
<path d="M63.5601 58.7598V66.4398" stroke="white" stroke-width="6" stroke-linecap="round" stroke-linejoin="round"/>
<path d="M53 0L63.6996 13.0686L79.5 7.10065L82.2318 23.7682L98.8993 26.5L92.9314 42.3004L106 53L92.9314 63.6996L98.8993 79.5L82.2318 82.2318L79.5 98.8993L63.6996 92.9314L53 106L42.3004 92.9314L26.5 98.8993L23.7682 82.2318L7.10065 79.5L13.0686 63.6996L0 53L13.0686 42.3004L7.10065 26.5L23.7682 23.7682L26.5 7.10065L42.3004 13.0686L53 0Z" fill="#535458"/>
<path d="M27 41.5714C27 39.2981 27.9131 37.118 29.5384 35.5105C31.1637 33.9031 33.3681 33 35.6667 33H70.3333C72.6319 33 74.8363 33.9031 76.4616 35.5105C78.0869 37.118 79 39.2981 79 41.5714V64.4286C79 66.7019 78.0869 68.882 76.4616 70.4895C74.8363 72.0969 72.6319 73 70.3333 73H35.6667C33.3681 73 31.1637 72.0969 29.5384 70.4895C27.9131 68.882 27 66.7019 27 64.4286V41.5714Z" stroke="white" stroke-width="6" stroke-linecap="round" stroke-linejoin="round"/>
<path d="M27 47H79" stroke="white" stroke-width="6" stroke-linecap="round" stroke-linejoin="round"/>
<path d="M50 62H56" stroke="white" stroke-width="6" stroke-linecap="round" stroke-linejoin="round"/>
</svg>
