<svg width="201" height="201" viewBox="0 0 201 201" fill="none" xmlns="http://www.w3.org/2000/svg">
<mask id="mask0_984_98" style="mask-type:luminance" maskUnits="userSpaceOnUse" x="0" y="0" width="201" height="201">
<path d="M200.541 0.458008H0.458008V200.541H200.541V0.458008Z" fill="white"/>
<path d="M138.846 58.8184C157.522 58.8184 166.868 58.8148 174.001 62.4495C180.274 65.6464 185.377 70.7491 188.574 77.0225C192.208 84.1556 192.205 93.5011 192.205 112.177V130.512C192.205 149.188 192.208 158.533 188.574 165.666C185.377 171.94 180.274 177.043 174.001 180.24C166.868 183.874 157.522 183.87 138.846 183.87H87.1646C68.4883 183.87 59.1432 183.874 52.0098 180.24C45.7364 177.043 40.6337 171.94 37.4368 165.666C33.8021 158.533 33.8057 149.188 33.8057 130.512V112.177C33.8057 93.5011 33.8021 84.1556 37.4368 77.0225C40.6337 70.7491 45.7364 65.6464 52.0098 62.4495C59.1432 58.8148 68.4883 58.8184 87.1646 58.8184H138.846ZM58.8161 100.502C54.2118 100.502 50.4793 104.235 50.4793 108.839C50.4793 113.444 54.2118 117.176 58.8161 117.176H167.195L168.049 117.135C172.252 116.707 175.531 113.155 175.531 108.839C175.531 104.523 172.252 100.971 168.049 100.543L167.195 100.502H58.8161Z" fill="black"/>
</mask>
<g mask="url(#mask0_984_98)">
<path d="M113.839 142.182H62.151C43.4748 142.182 34.1366 142.182 27.0033 138.547C20.7286 135.35 15.6272 130.249 12.43 123.974C8.79541 116.841 8.79541 107.503 8.79541 88.8264V70.4854C8.79541 51.8092 8.79541 42.4711 12.43 35.3378C15.6272 29.0631 20.7286 23.9616 27.0033 20.7645C34.1367 17.1299 43.4748 17.1299 62.151 17.1299H113.839C132.515 17.1299 141.853 17.1299 148.987 20.7645C155.261 23.9616 160.363 29.0631 163.56 35.3378C167.195 42.4712 167.195 51.8092 167.195 70.4854V96.3295H168.334C173.994 96.3295 178.284 100.368 179.41 105.531C179.604 103.837 179.698 102.045 179.7 100.141V108.239C179.7 107.313 179.6 106.406 179.41 105.531C178.327 114.971 174.131 121.391 165.43 127.46L153.07 136.063C151.655 137.047 150.272 137.893 148.987 138.547C141.853 142.182 132.515 142.182 113.839 142.182Z" fill="url(#paint0_linear_984_98)"/>
</g>
<mask id="mask1_984_98" style="mask-type:luminance" maskUnits="userSpaceOnUse" x="33" y="58" width="160" height="126">
<path d="M138.843 58.8115C157.519 58.8115 166.865 58.8079 173.998 62.4426C180.271 65.6395 185.374 70.7422 188.571 77.0157C192.205 84.1487 192.202 93.4943 192.202 112.17V130.505C192.202 149.181 192.205 158.526 188.571 165.659C185.374 171.933 180.271 177.036 173.998 180.233C166.865 183.867 157.519 183.864 138.843 183.864H87.1616C68.4853 183.864 59.1403 183.867 52.0069 180.233C45.7335 177.036 40.6307 171.933 37.4338 165.659C33.7992 158.526 33.8027 149.181 33.8027 130.505V112.17C33.8027 93.4943 33.7992 84.1487 37.4338 77.0157C40.6307 70.7422 45.7335 65.6395 52.0069 62.4426C59.1403 58.8079 68.4853 58.8115 87.1616 58.8115H138.843ZM58.8132 100.496C54.2089 100.496 50.4763 104.228 50.4763 108.832C50.4763 113.437 54.2089 117.169 58.8132 117.169H167.192L168.046 117.128C172.25 116.701 175.528 113.148 175.528 108.832C175.528 104.516 172.25 100.964 168.046 100.536L167.192 100.496H58.8132Z" fill="white"/>
</mask>
<g mask="url(#mask1_984_98)">
<g filter="url(#filter0_f_984_98)">
<path d="M113.838 142.182H62.1495C43.4733 142.182 34.1352 142.182 27.0019 138.547C20.7272 135.35 15.6257 130.249 12.4285 123.974C8.79394 116.841 8.79395 107.503 8.79395 88.8264V70.4854C8.79395 51.8092 8.79394 42.4711 12.4285 35.3378C15.6257 29.0631 20.7272 23.9616 27.0019 20.7645C34.1352 17.1299 43.4733 17.1299 62.1495 17.1299H113.838C132.514 17.1299 141.852 17.1299 148.986 20.7645C155.26 23.9616 160.361 29.0631 163.558 35.3378C167.193 42.4712 167.193 51.8092 167.193 70.4854V96.3295H168.333C173.993 96.3295 178.283 100.368 179.408 105.531C179.603 103.837 179.697 102.045 179.698 100.141V108.239C179.698 107.313 179.598 106.406 179.408 105.531C178.325 114.971 174.129 121.391 165.428 127.46L153.068 136.063C151.653 137.047 150.27 137.893 148.986 138.547C141.852 142.182 132.514 142.182 113.838 142.182Z" fill="url(#paint1_linear_984_98)"/>
</g>
</g>
<path d="M138.846 58.8184C157.522 58.8184 166.868 58.8148 174.001 62.4495C180.274 65.6464 185.377 70.7491 188.574 77.0225C192.208 84.1556 192.205 93.5011 192.205 112.177V130.512C192.205 149.188 192.208 158.533 188.574 165.666C185.377 171.94 180.274 177.043 174.001 180.24C166.868 183.874 157.522 183.87 138.846 183.87H87.1646C68.4883 183.87 59.1432 183.874 52.0098 180.24C45.7364 177.043 40.6337 171.94 37.4368 165.666C33.8021 158.533 33.8057 149.188 33.8057 130.512V112.177C33.8057 93.5011 33.8021 84.1556 37.4368 77.0225C40.6337 70.7491 45.7364 65.6464 52.0098 62.4495C59.1432 58.8148 68.4883 58.8184 87.1646 58.8184H138.846ZM58.8161 100.502C54.2118 100.502 50.4793 104.235 50.4793 108.839C50.4793 113.444 54.2118 117.176 58.8161 117.176H167.195L168.049 117.135C172.252 116.707 175.531 113.155 175.531 108.839C175.531 104.523 172.252 100.971 168.049 100.543L167.195 100.502H58.8161Z" fill="url(#paint2_linear_984_98)"/>
<path d="M138.846 177.618V183.87H87.1646V177.618H138.846ZM185.952 130.512V112.177C185.952 102.737 185.95 96.0289 185.521 90.7817C185.098 85.6078 184.29 82.4023 182.997 79.8639C180.399 74.7671 176.257 70.6237 171.16 68.0263C168.621 66.733 165.415 65.9252 160.242 65.5025C154.995 65.0739 148.287 65.071 138.846 65.071H87.1646C77.7238 65.071 71.0157 65.0739 65.7688 65.5025C60.5948 65.9252 57.3896 66.733 54.8512 68.0263C49.7543 70.6237 45.611 74.7671 43.0136 79.8639C41.7203 82.4023 40.9125 85.6078 40.4898 90.7817C40.0612 96.028 40.0583 102.737 40.0583 112.177V130.512C40.0583 139.952 40.0612 146.661 40.4898 151.907C40.9125 157.081 41.7203 160.286 43.0136 162.825C45.611 167.922 49.7543 172.065 54.8512 174.662C57.3896 175.955 60.5948 176.763 65.7688 177.186C71.0157 177.615 77.7238 177.618 87.1646 177.618V183.87L74.7896 183.814C64.8545 183.657 58.4899 183.071 53.3776 180.874L52.0098 180.24C46.5203 177.442 41.9268 173.185 38.723 167.962L37.4368 165.666C33.8021 158.533 33.8057 149.188 33.8057 130.512V112.177C33.8057 93.5011 33.8021 84.1556 37.4368 77.0225C40.6337 70.7491 45.7364 65.6464 52.0098 62.4495C57.3592 59.7238 63.9521 59.0458 74.7896 58.8754L87.1646 58.8184H138.846C157.522 58.8184 166.868 58.8148 174.001 62.4495C180.274 65.6464 185.377 70.7491 188.574 77.0225C192.208 84.1556 192.205 93.5011 192.205 112.177V130.512C192.205 149.188 192.208 158.533 188.574 165.666L187.288 167.962C184.084 173.185 179.491 177.442 174.001 180.24L172.633 180.874C165.661 183.87 156.356 183.87 138.846 183.87V177.618C148.287 177.618 154.995 177.615 160.242 177.186C165.415 176.763 168.621 175.955 171.16 174.662C176.257 172.065 180.399 167.922 182.997 162.825C184.29 160.286 185.098 157.081 185.521 151.907C185.95 146.661 185.952 139.952 185.952 130.512Z" fill="url(#paint3_linear_984_98)"/>
<defs>
<filter id="filter0_f_984_98" x="-29.5554" y="-21.2194" width="247.603" height="201.75" filterUnits="userSpaceOnUse" color-interpolation-filters="sRGB">
<feFlood flood-opacity="0" result="BackgroundImageFix"/>
<feBlend mode="normal" in="SourceGraphic" in2="BackgroundImageFix" result="shape"/>
<feGaussianBlur stdDeviation="19.1747" result="effect1_foregroundBlur_984_98"/>
</filter>
<linearGradient id="paint0_linear_984_98" x1="94.2516" y1="17.1241" x2="94.2516" y2="142.184" gradientUnits="userSpaceOnUse">
<stop stop-color="#68CDFF"/>
<stop offset="1" stop-color="#2597D0"/>
</linearGradient>
<linearGradient id="paint1_linear_984_98" x1="94.2501" y1="17.1241" x2="94.2501" y2="142.184" gradientUnits="userSpaceOnUse">
<stop stop-color="#68CDFF"/>
<stop offset="1" stop-color="#2597D0"/>
</linearGradient>
<linearGradient id="paint2_linear_984_98" x1="188.536" y1="61.7133" x2="88.6392" y2="188.249" gradientUnits="userSpaceOnUse">
<stop stop-color="#EBF8FF"/>
<stop offset="1" stop-color="#47C2FF" stop-opacity="0.1"/>
</linearGradient>
<linearGradient id="paint3_linear_984_98" x1="113.005" y1="58.8184" x2="113.005" y2="131.24" gradientUnits="userSpaceOnUse">
<stop stop-color="white"/>
<stop offset="1" stop-color="white" stop-opacity="0"/>
</linearGradient>
</defs>
</svg>
