<svg width="634" height="646" viewBox="0 0 634 646" fill="none" xmlns="http://www.w3.org/2000/svg">
<path d="M390.374 40.2207L415.811 79.2619L460.878 69.9902C522.789 57.2565 577.422 112.949 564.93 176.059L555.836 222.002L594.134 247.933C646.742 283.558 646.742 362.316 594.134 397.941L555.836 423.873L564.93 469.815C577.422 532.925 522.789 588.618 460.878 575.884L415.811 566.612L390.374 605.654C355.425 659.281 278.165 659.281 243.216 605.654L217.779 566.612L172.712 575.884C110.801 588.618 56.1675 532.925 68.659 469.815L77.7543 423.873L39.4557 397.941C-13.1519 362.316 -13.1519 283.558 39.4557 247.933L77.7543 222.002L68.659 176.059C56.1675 112.949 110.801 57.2565 172.712 69.9902L217.779 79.2619L243.216 40.2207C278.165 -13.4069 355.425 -13.4069 390.374 40.2207Z" fill="#FF4F59"/>
<path d="M317 530.723L317 531.001" stroke="white" stroke-width="65" stroke-linecap="round" stroke-linejoin="round"/>
<path d="M317 419.086L317 140" stroke="white" stroke-width="65" stroke-linecap="round" stroke-linejoin="round"/>
</svg>
