<svg width="106" height="106" viewBox="0 0 106 106" fill="none" xmlns="http://www.w3.org/2000/svg">
<path d="M53 0L63.6996 13.0686L79.5 7.10065L82.2318 23.7682L98.8993 26.5L92.9314 42.3004L106 53L92.9314 63.6996L98.8993 79.5L82.2318 82.2318L79.5 98.8993L63.6996 92.9314L53 106L42.3004 92.9314L26.5 98.8993L23.7682 82.2318L7.10065 79.5L13.0686 63.6996L0 53L13.0686 42.3004L7.10065 26.5L23.7682 23.7682L26.5 7.10065L42.3004 13.0686L53 0Z" fill="#535458"/>
<path d="M29 53C29 56.1517 29.6208 59.2726 30.8269 62.1844C32.033 65.0962 33.8008 67.742 36.0294 69.9706C38.258 72.1992 40.9038 73.967 43.8156 75.1731C46.7274 76.3792 49.8483 77 53 77C56.1517 77 59.2726 76.3792 62.1844 75.1731C65.0962 73.967 67.742 72.1992 69.9706 69.9706C72.1992 67.742 73.967 65.0962 75.1731 62.1844C76.3792 59.2726 77 56.1517 77 53C77 49.8483 76.3792 46.7274 75.1731 43.8156C73.967 40.9038 72.1992 38.258 69.9706 36.0294C67.742 33.8008 65.0962 32.033 62.1844 30.8269C59.2726 29.6208 56.1517 29 53 29C49.8483 29 46.7274 29.6208 43.8156 30.8269C40.9038 32.033 38.258 33.8008 36.0294 36.0294C33.8008 38.258 32.033 40.9038 30.8269 43.8156C29.6208 46.7274 29 49.8483 29 53Z" stroke="white" stroke-width="6" stroke-linecap="round" stroke-linejoin="round"/>
<path d="M60.4667 45.0003C59.9836 44.1623 59.2817 43.4715 58.4362 43.0017C57.5907 42.532 56.6334 42.301 55.6667 42.3336H50.3333C48.9188 42.3336 47.5623 42.8955 46.5621 43.8957C45.5619 44.8959 45 46.2524 45 47.6669C45 49.0814 45.5619 50.438 46.5621 51.4382C47.5623 52.4383 48.9188 53.0003 50.3333 53.0003H55.6667C57.0812 53.0003 58.4377 53.5622 59.4379 54.5624C60.4381 55.5625 61 56.9191 61 58.3336C61 59.7481 60.4381 61.1046 59.4379 62.1048C58.4377 63.105 57.0812 63.6669 55.6667 63.6669H50.3333C49.3666 63.6995 48.4093 63.4685 47.5638 62.9988C46.7183 62.529 46.0164 61.8382 45.5333 61.0003" stroke="white" stroke-width="6" stroke-linecap="round" stroke-linejoin="round"/>
<path d="M53 39.6665V66.3332" stroke="white" stroke-width="6" stroke-linecap="round" stroke-linejoin="round"/>
</svg>
