<svg width="84" height="84" viewBox="0 0 84 84" fill="none" xmlns="http://www.w3.org/2000/svg">
<path fill-rule="evenodd" clip-rule="evenodd" d="M17.5 14.0001C15.567 14.0001 14 15.5671 14 17.5001V31.5001H7V17.5001C7 11.7011 11.701 7.00006 17.5 7.00006H31.5V14.0001H17.5Z" fill="#111111"/>
<path fill-rule="evenodd" clip-rule="evenodd" d="M52.5 7.00012H66.5C72.2992 7.00012 77 11.7011 77 17.5001V31.5001H70V17.5001C70 15.5671 68.4331 14.0001 66.5 14.0001H52.5V7.00012Z" fill="#111111"/>
<path fill-rule="evenodd" clip-rule="evenodd" d="M77 52.5001V66.5001C77 72.2993 72.2992 77.0001 66.5 77.0001H52.5V70.0001H66.5C68.4331 70.0001 70 68.4332 70 66.5001V52.5001H77Z" fill="#111111"/>
<path fill-rule="evenodd" clip-rule="evenodd" d="M14 52.5001V66.5001C14 68.4332 15.567 70.0001 17.5 70.0001H31.5V77.0001H17.5C11.701 77.0001 7 72.2993 7 66.5001V52.5001H14Z" fill="#111111"/>
<path d="M32.2164 53.4857L27.055 54.9648C26.9595 54.9921 26.8647 55.0212 26.7708 55.0516C21.256 56.8447 25.6998 63.0001 31.4987 63.0001H52.4987C58.2979 63.0001 62.7415 56.8447 57.2265 55.0516C57.1327 55.0212 57.0379 54.9921 56.9427 54.9648L51.7812 53.4857C49.347 52.8053 47.6687 52.575 47.6687 50.0984V47.0195C49.8594 45.5519 51.4386 43.2486 51.902 40.528L53.0538 33.7672C54.1924 27.084 48.9242 21.0001 41.9987 21.0001C35.0733 21.0001 29.8052 27.084 30.9437 33.7672L32.0955 40.528C32.559 43.2486 34.1383 45.5519 36.3287 47.0195V50.0984C36.3287 52.575 34.6506 52.8053 32.2164 53.4857Z" fill="#111111"/>
</svg>
