<svg width="80" height="80" viewBox="0 0 80 80" fill="none" xmlns="http://www.w3.org/2000/svg">
  <path d="M40 10C40 4.47715 44.4772 0 50 0C55.5228 0 60 4.47715 60 10V30C60 35.5228 55.5228 40 50 40C44.4772 40 40 35.5228 40 30V10Z" fill="#8B4513"/>
  <path d="M45 15C45 12.2386 47.2386 10 50 10C52.7614 10 55 12.2386 55 15V25C55 27.7614 52.7614 30 50 30C47.2386 30 45 27.7614 45 25V15Z" fill="#FFB6C1"/>
  <path d="M20 25C20 20.5817 23.5817 17 28 17C32.4183 17 36 20.5817 36 25V45C36 49.4183 32.4183 53 28 53C23.5817 53 20 49.4183 20 45V25Z" fill="#8B4513"/>
  <path d="M25 30C25 28.3431 26.3431 27 28 27C29.6569 27 31 28.3431 31 30V40C31 41.6569 29.6569 43 28 43C26.3431 43 25 41.6569 25 40V30Z" fill="#FFB6C1"/>
  <path d="M15 35C15 30.5817 18.5817 27 23 27C27.4183 27 31 30.5817 31 35V55C31 59.4183 27.4183 63 23 63C18.5817 63 15 59.4183 15 55V35Z" fill="#8B4513"/>
  <path d="M20 40C20 38.3431 21.3431 37 23 37C24.6569 37 26 38.3431 26 40V50C26 51.6569 24.6569 53 23 53C21.3431 53 20 51.6569 20 50V40Z" fill="#FFB6C1"/>
  <path d="M10 45C10 40.5817 13.5817 37 18 37C22.4183 37 26 40.5817 26 45V65C26 69.4183 22.4183 73 18 73C13.5817 73 10 69.4183 10 65V45Z" fill="#8B4513"/>
  <path d="M15 50C15 48.3431 16.3431 47 18 47C19.6569 47 21 48.3431 21 50V60C21 61.6569 19.6569 63 18 63C16.3431 63 15 61.6569 15 60V50Z" fill="#FFB6C1"/>
</svg>
