<svg width="65" height="66" viewBox="0 0 65 66" fill="none" xmlns="http://www.w3.org/2000/svg">
<path d="M29.4369 2.27052C30.0536 -0.689328 34.2804 -0.689329 34.8971 2.27051C35.4109 4.73646 38.6719 5.31146 39.9981 3.16996C41.59 0.599555 45.5619 2.04519 45.1291 5.03747C44.7685 7.53044 47.6361 9.18607 49.6148 7.62732C51.9898 5.75638 55.2277 8.47329 53.7976 11.1371C52.6061 13.3564 54.7346 15.893 57.1271 15.105C59.9987 14.1592 62.1121 17.8196 59.8572 19.8337C57.9785 21.5116 59.111 24.6232 61.6287 24.701C64.6507 24.7944 65.3847 28.9569 62.5769 30.0783C60.2376 31.0125 60.2376 34.3238 62.5769 35.258C65.3847 36.3793 64.6507 40.5419 61.6287 40.6353C59.111 40.7131 57.9785 43.8246 59.8572 45.5026C62.1121 47.5166 59.9987 51.1771 57.1271 50.2313C54.7346 49.4433 52.6061 51.9799 53.7976 54.1992C55.2277 56.863 51.9898 59.5799 49.6148 57.7089C47.6361 56.1502 44.7685 57.8058 45.1291 60.2988C45.5619 63.2911 41.59 64.7367 39.9981 62.1663C38.6719 60.0248 35.4109 60.5998 34.8971 63.0657C34.2804 66.0256 30.0536 66.0256 29.4369 63.0657C28.9231 60.5998 25.6621 60.0248 24.3359 62.1663C22.744 64.7367 18.7722 63.2911 19.2049 60.2988C19.5655 57.8058 16.6979 56.1502 14.7192 57.7089C12.3442 59.5799 9.1063 56.863 10.5364 54.1992C11.7279 51.9799 9.59944 49.4433 7.20696 50.2313C4.33529 51.1771 2.22191 47.5166 4.47684 45.5026C6.35551 43.8246 5.22299 40.7131 2.70528 40.6353C-0.316692 40.5419 -1.05066 36.3793 1.75712 35.258C4.09638 34.3238 4.09638 31.0125 1.75712 30.0783C-1.05066 28.9569 -0.316693 24.7944 2.70528 24.701C5.22299 24.6232 6.35551 21.5116 4.47684 19.8337C2.22191 17.8196 4.33529 14.1592 7.20696 15.105C9.59944 15.893 11.7279 13.3564 10.5364 11.1371C9.10631 8.47329 12.3442 5.75638 14.7192 7.62732C16.6979 9.18607 19.5655 7.53044 19.2049 5.03747C18.7722 2.04519 22.744 0.599555 24.3359 3.16996C25.6621 5.31146 28.9231 4.73646 29.4369 2.27052Z" fill="#5A78F4"/>
<path d="M45.1432 60.2481C45.5759 63.2403 41.6035 64.6862 40.0117 62.1159C38.6854 59.9744 35.4246 60.5494 34.9108 63.0153C34.2939 65.9749 30.0673 65.9747 29.4506 63.0149C28.9366 60.5491 25.676 59.9743 24.3498 62.1157C22.758 64.6861 18.7864 63.2405 19.219 60.2484C19.2889 59.7646 19.2361 59.3125 19.0931 58.9092L43.6818 44.7129L38.6642 36.0222L10.7941 52.1131C10.4035 50.6819 8.8762 49.6358 7.22125 50.1806C4.34958 51.1264 2.23585 47.4653 4.49078 45.4513C6.3688 43.7733 5.23669 40.6624 2.71941 40.5844C-0.302566 40.491 -1.03677 36.3286 1.77101 35.2073C4.11003 34.2731 4.11003 30.9624 1.7712 30.028C-1.03655 28.9066 -0.302953 24.7434 2.71895 24.65C5.23666 24.5722 6.36925 21.461 4.49059 19.783C2.23576 17.7691 4.3489 14.1087 7.22037 15.0541C9.61286 15.8421 11.7412 13.3057 10.5497 11.0863C9.11997 8.42268 12.3581 5.70554 14.733 7.57618C16.7117 9.13492 19.5793 7.47931 19.2188 4.98633C18.7864 1.99443 22.7576 0.549082 24.3495 3.11906C25.6757 5.26056 28.9365 4.68557 29.4503 2.21962C30.0672 -0.740092 34.2939 -0.739784 34.9106 2.22001C35.4245 4.68578 38.685 5.26042 40.0113 3.11921C41.6032 0.548807 45.5754 1.99515 45.1427 4.98743C44.9789 6.12148 45.484 7.08113 46.2686 7.64471L20.1771 22.7087L25.1947 31.3994L54.4425 14.5131C55.1308 15.1156 56.1108 15.3931 57.1407 15.0538C60.0123 14.1081 62.126 17.7691 59.8712 19.7831C57.9925 21.4611 59.1249 24.5723 61.6426 24.6501C64.6645 24.7435 65.3979 28.9063 62.5901 30.0276C60.2513 30.9621 60.2513 34.2737 62.5904 35.2078C65.3982 36.3292 64.6642 40.4916 61.6422 40.585C59.1248 40.663 57.9922 43.774 59.8705 45.4519C62.1255 47.466 60.0124 51.1266 57.1408 50.1808C54.7483 49.3929 52.6199 51.9293 53.8114 54.1486C55.2413 56.8123 52.0039 59.5288 49.6289 57.6583C47.6502 56.0995 44.7826 57.7551 45.1432 60.2481Z" fill="#5A78F4"/>
<path d="M49.1411 27.7148V54H34.2983V40.8574H30.0571V54H15.2144V27.7148L32.1772 14.5713L49.1411 27.7148Z" fill="#F3D90A"/>
<rect x="28.3569" y="37.5713" width="7.66667" height="7.66667" fill="#F3D90A"/>
<path d="M27.9824 9.68091C30.1082 7.43952 34.2727 7.43951 36.3985 9.6809L56.2688 30.6317C58.9569 33.466 56.4675 37.5713 52.0607 37.5713L12.3202 37.5713C7.91342 37.5713 5.42406 33.466 8.1122 30.6317L27.9824 9.68091Z" fill="url(#paint0_linear_1055_68)"/>
<defs>
<linearGradient id="paint0_linear_1055_68" x1="36.5714" y1="0.333193" x2="22.3333" y2="30.9999" gradientUnits="userSpaceOnUse">
<stop stop-color="#FFDE00"/>
<stop offset="1" stop-color="#FF4F59"/>
</linearGradient>
</defs>
</svg>
