<svg width="66" height="66" viewBox="0 0 66 66" fill="none" xmlns="http://www.w3.org/2000/svg">
<path d="M26.2152 4.25994C28.6457 -1.41998 36.6976 -1.41998 39.1281 4.25994C40.6289 7.76721 44.6552 9.43492 48.1964 8.01614C53.9314 5.71846 59.6249 11.412 57.3272 17.147C55.9084 20.6882 57.5762 24.7144 61.0834 26.2152C66.7634 28.6457 66.7634 36.6976 61.0834 39.1281C57.5762 40.6289 55.9084 44.6552 57.3272 48.1964C59.6249 53.9314 53.9314 59.6249 48.1964 57.3272C44.6552 55.9084 40.6289 57.5762 39.1281 61.0834C36.6976 66.7634 28.6457 66.7634 26.2152 61.0834C24.7144 57.5762 20.6882 55.9084 17.147 57.3272C11.412 59.6249 5.71846 53.9314 8.01614 48.1964C9.43492 44.6552 7.76721 40.6289 4.25994 39.1281C-1.41998 36.6976 -1.41998 28.6457 4.25994 26.2152C7.76721 24.7144 9.43492 20.6882 8.01614 17.147C5.71846 11.412 11.412 5.71846 17.147 8.01614C20.6882 9.43493 24.7144 7.76721 26.2152 4.25994Z" fill="#EA4857"/>
<path d="M26.23 4.25977C28.6605 -1.42 36.7124 -1.41985 39.1431 4.25977C40.6438 7.76696 44.6702 9.43522 48.2114 8.01661C53.9464 5.71893 59.64 11.4125 57.3423 17.1475C55.9239 20.6884 57.5914 24.7139 61.0981 26.2149C66.7781 28.6454 66.7781 36.6974 61.0981 39.1279C57.5911 40.6288 55.9237 44.6552 57.3423 48.1963C59.64 53.9312 53.9464 59.6248 48.2114 57.3272C44.6703 55.9085 40.644 57.576 39.1431 61.083C36.7126 66.7629 28.6605 66.7629 26.23 61.083C24.729 57.5761 20.7027 55.9084 17.1616 57.3272C11.4268 59.6245 5.73411 53.9311 8.03174 48.1963C9.45029 44.6551 7.78206 40.6287 4.2749 39.1279C3.33044 38.7238 2.54393 38.1634 1.91357 37.5H22.0151V30.5H0.350098C0.922875 28.6931 2.23068 27.0896 4.2749 26.2149C7.78198 24.7141 9.45013 20.6886 8.03174 17.1475C5.73409 11.4126 11.4268 5.71921 17.1616 8.01661C20.7029 9.43539 24.7292 7.76704 26.23 4.25977Z" fill="#EA4857"/>
<path d="M48.4766 28V52H34.9248V40H31.0527V52H17.5V28L32.9883 16L48.4766 28Z" fill="url(#paint0_linear_1036_56)"/>
<rect x="29.5" y="37" width="7" height="7" fill="#FAD1D5"/>
<path d="M29.1579 11.5349C31.0988 9.48838 34.9012 9.48838 36.8421 11.5349L54.9845 30.6639C57.4389 33.2517 55.166 37 51.1424 37L14.8576 37C10.834 37 8.5611 33.2517 11.0155 30.6639L29.1579 11.5349Z" fill="url(#paint1_linear_1036_56)"/>
<defs>
<linearGradient id="paint0_linear_1036_56" x1="44.4996" y1="41.2" x2="53.0496" y2="30.4001" gradientUnits="userSpaceOnUse">
<stop stop-color="white" stop-opacity="0.75"/>
<stop offset="0.595462" stop-color="#FF4F59"/>
</linearGradient>
<linearGradient id="paint1_linear_1036_56" x1="37" y1="3" x2="24" y2="31" gradientUnits="userSpaceOnUse">
<stop stop-color="#0ABD64"/>
<stop offset="1" stop-color="#753AAD"/>
</linearGradient>
</defs>
</svg>
