<svg width="106" height="106" viewBox="0 0 106 106" fill="none" xmlns="http://www.w3.org/2000/svg">
<path d="M53 0L63.6996 13.0686L79.5 7.10065L82.2318 23.7682L98.8993 26.5L92.9314 42.3004L106 53L92.9314 63.6996L98.8993 79.5L82.2318 82.2318L79.5 98.8993L63.6996 92.9314L53 106L42.3004 92.9314L26.5 98.8993L23.7682 82.2318L7.10065 79.5L13.0686 63.6996L0 53L13.0686 42.3004L7.10065 26.5L23.7682 23.7682L26.5 7.10065L42.3004 13.0686L53 0Z" fill="#535458"/>
<path d="M34 31.6667C34 30.9594 34.2784 30.2811 34.7741 29.781C35.2697 29.281 35.9419 29 36.6429 29H68.3571C69.0581 29 69.7303 29.281 70.2259 29.781C70.7216 30.2811 71 30.9594 71 31.6667V74.3333C71 75.0406 70.7216 75.7189 70.2259 76.219C69.7303 76.7191 69.0581 77 68.3571 77H36.6429C35.9419 77 35.2697 76.7191 34.7741 76.219C34.2784 75.7189 34 75.0406 34 74.3333V31.6667Z" stroke="white" stroke-width="6" stroke-linecap="round" stroke-linejoin="round"/>
<path d="M50 66.5C50 67.163 50.2634 67.7989 50.7322 68.2678C51.2011 68.7366 51.837 69 52.5 69C53.163 69 53.7989 68.7366 54.2678 68.2678C54.7366 67.7989 55 67.163 55 66.5C55 65.837 54.7366 65.2011 54.2678 64.7322C53.7989 64.2634 53.163 64 52.5 64C51.837 64 51.2011 64.2634 50.7322 64.7322C50.2634 65.2011 50 65.837 50 66.5Z" stroke="white" stroke-width="6" stroke-linecap="round" stroke-linejoin="round"/>
</svg>
