<svg width="60" height="60" viewBox="0 0 60 60" fill="none" xmlns="http://www.w3.org/2000/svg">
<path d="M30 0L34.203 2.11497L38.8427 1.33282L42.2355 4.59268L46.8996 5.21284L49.1809 9.32794L53.4549 11.2953L54.4219 15.9L57.9262 19.0398L57.493 23.7249L59.9161 27.7581L58.1211 32.1074L59.2478 36.6756L56.2506 40.3026L55.9808 45L52.0476 47.5824L50.4052 51.9916L45.8856 53.2999L43.0165 57.0291L38.3121 56.9472L34.4713 59.6649L30 58.2L25.5287 59.6649L21.6879 56.9472L16.9835 57.0291L14.1144 53.2999L9.59482 51.9916L7.95235 47.5824L4.01924 45L3.74936 40.3026L0.752163 36.6756L1.87885 32.1074L0.0838852 27.7581L2.50703 23.7249L2.07379 19.0398L5.57808 15.9L6.54506 11.2953L10.8191 9.32794L13.1004 5.21284L17.7645 4.59268L21.1573 1.33282L25.797 2.11497L30 0Z" fill="white"/>
<path d="M25.8188 8.06769C25.8188 5.82117 27.64 4 29.8865 4C32.1331 4 33.9542 5.82117 33.9542 8.06769L33.9542 13.4913L25.8188 13.4913L25.8188 8.06769Z" fill="url(#paint0_linear_128_272)"/>
<path d="M16.1016 23.5469C16.1016 15.9961 22.2227 9.875 29.7735 9.875C37.3243 9.875 43.4455 15.9961 43.4455 23.547V41.7386H16.1016V23.5469Z" fill="url(#paint1_linear_128_272)"/>
<path d="M34.6321 49.7615C34.6321 52.4448 32.4568 54.6201 29.7735 54.6201C27.0901 54.6201 24.9148 52.4448 24.9148 49.7615L24.9148 43.321L34.6321 43.321L34.6321 49.7615Z" fill="url(#paint2_linear_128_272)"/>
<path d="M16.2145 49.6475C12.7823 49.6475 10 46.8651 10 43.4329C10 40.0008 12.7823 37.2184 16.2145 37.2184L43.5584 37.2184C46.9906 37.2184 49.7729 40.0008 49.7729 43.4329C49.7729 46.8651 46.9906 49.6475 43.5584 49.6475L16.2145 49.6475Z" fill="#F7505A"/>
<defs>
<linearGradient id="paint0_linear_128_272" x1="29.8865" y1="4" x2="24.463" y2="20.6097" gradientUnits="userSpaceOnUse">
<stop stop-color="#FF505A"/>
<stop offset="1" stop-color="#F5B35E"/>
</linearGradient>
<linearGradient id="paint1_linear_128_272" x1="34.9711" y1="18.9143" x2="1.41269" y2="54.8456" gradientUnits="userSpaceOnUse">
<stop stop-color="#7439AD"/>
<stop offset="1" stop-color="#300D52"/>
</linearGradient>
<linearGradient id="paint2_linear_128_272" x1="33.2762" y1="69.196" x2="29.6605" y2="41.6261" gradientUnits="userSpaceOnUse">
<stop stop-color="#FD515D"/>
<stop offset="1" stop-color="#FFDD00"/>
</linearGradient>
</defs>
</svg>
