<svg width="201" height="201" viewBox="0 0 201 201" fill="none" xmlns="http://www.w3.org/2000/svg">
<mask id="mask0_984_71" style="mask-type:luminance" maskUnits="userSpaceOnUse" x="0" y="0" width="201" height="201">
<path d="M200.541 0.458008H0.458008V200.541H200.541V0.458008Z" fill="white"/>
<path d="M89.3638 22.2909C94.0041 13.1949 106.998 13.1945 111.638 22.2909L129.736 57.7712C131.59 61.4035 135.102 63.9039 139.14 64.4715L178.935 70.0647C189.32 71.5245 193.404 84.3541 185.774 91.5496L157.516 118.196C154.45 121.088 153.05 125.332 153.787 129.48L160.528 167.501C162.329 177.66 151.749 185.504 142.552 180.828L106.168 162.339C102.606 160.529 98.3959 160.529 94.8345 162.339L58.4506 180.828C49.2525 185.505 38.6724 177.661 40.4744 167.501L47.2155 129.48C47.9514 125.331 46.5444 121.088 43.4786 118.196L15.2279 91.5496C7.59827 84.3541 11.6814 71.5245 22.0667 70.0647L61.8619 64.4715C65.8992 63.9034 69.4044 61.4029 71.2571 57.7712L89.3638 22.2909Z" fill="black"/>
</mask>
<g mask="url(#mask0_984_71)">
<path d="M169.841 68.7833C167.493 74.5106 163.374 80.5779 158.232 86.5964C147.711 98.9107 131.607 112.567 112.468 124.886C93.3312 137.202 74.2349 146.21 58.6703 150.686C53.1372 152.277 47.8013 153.353 42.9248 153.739L45.9778 136.544C48.3822 136.123 51.0856 135.511 54.0623 134.656C67.6718 130.741 85.2837 122.557 103.448 110.867C121.615 99.1733 136.365 86.5356 145.564 75.7686C148.572 72.2479 150.836 69.0724 152.443 66.3408L169.841 68.7833Z" fill="url(#paint0_linear_984_71)"/>
</g>
<mask id="mask1_984_71" style="mask-type:luminance" maskUnits="userSpaceOnUse" x="11" y="15" width="179" height="168">
<path d="M89.3638 22.2909C94.0041 13.1949 106.998 13.1945 111.638 22.2909L129.736 57.7712C131.59 61.4035 135.102 63.9039 139.14 64.4715L178.935 70.0647C189.32 71.5245 193.404 84.3541 185.774 91.5496L157.516 118.196C154.45 121.088 153.05 125.332 153.787 129.48L160.528 167.501C162.329 177.66 151.749 185.504 142.552 180.828L106.168 162.339C102.606 160.529 98.3959 160.529 94.8345 162.339L58.4506 180.828C49.2525 185.505 38.6724 177.661 40.4744 167.501L47.2155 129.48C47.9514 125.331 46.5444 121.088 43.4786 118.196L15.2279 91.5496C7.59827 84.3541 11.6814 71.5245 22.0667 70.0647L61.8619 64.4715C65.8992 63.9034 69.4044 61.4029 71.2571 57.7712L89.3638 22.2909Z" fill="white"/>
</mask>
<g mask="url(#mask1_984_71)">
<g filter="url(#filter0_f_984_71)">
<path d="M169.843 68.7764C167.495 74.5037 163.376 80.5711 158.234 86.5896C147.713 98.9039 131.609 112.56 112.47 124.879C93.3332 137.196 74.2369 146.203 58.6722 150.679C53.1392 152.27 47.8032 153.346 42.9268 153.732L45.9798 136.537C48.3842 136.116 51.0876 135.504 54.0642 134.649C67.6737 130.735 85.2857 122.55 103.45 110.86C121.617 99.1665 136.367 86.5287 145.566 75.7617C148.574 72.241 150.838 69.0655 152.445 66.334L169.843 68.7764Z" fill="url(#paint1_linear_984_71)"/>
</g>
</g>
<path d="M89.3638 22.2909C94.0041 13.1949 106.998 13.1945 111.638 22.2909L129.736 57.7712C131.59 61.4035 135.102 63.9039 139.14 64.4715L178.935 70.0647C189.32 71.5245 193.404 84.3541 185.774 91.5496L157.516 118.196C154.45 121.088 153.05 125.332 153.787 129.48L160.528 167.501C162.329 177.66 151.749 185.504 142.552 180.828L106.168 162.339C102.606 160.529 98.3959 160.529 94.8345 162.339L58.4506 180.828C49.2525 185.505 38.6724 177.661 40.4744 167.501L47.2155 129.48C47.9514 125.331 46.5444 121.088 43.4786 118.196L15.2279 91.5496C7.59827 84.3541 11.6814 71.5245 22.0667 70.0647L61.8619 64.4715C65.8992 63.9034 69.4044 61.4029 71.2571 57.7712L89.3638 22.2909Z" fill="url(#paint2_linear_984_71)"/>
<path d="M89.365 22.2905C94.0053 13.1948 106.999 13.1948 111.64 22.2905L129.747 57.7708C131.599 61.4029 135.104 63.9034 139.142 64.4712L178.937 70.0644C189.323 71.5242 193.406 84.3546 185.776 91.5492L157.518 118.196C154.452 121.087 153.052 125.332 153.789 129.481L160.53 167.501C162.275 177.343 152.398 185.017 143.416 181.236L142.553 180.836L106.169 162.34C102.607 160.529 98.3971 160.529 94.8356 162.34L58.4515 180.836L57.5886 181.236C48.896 184.896 39.3592 177.827 40.3367 168.445L40.4751 167.501L47.2162 129.481C47.8602 125.85 46.866 122.149 44.554 119.344L43.4874 118.196L15.2283 91.5492C7.8361 84.578 11.4377 72.3193 21.1146 70.2353L22.0672 70.0644L61.8628 64.4712C65.9004 63.9033 69.4051 61.4028 71.2581 57.7708L89.365 22.2905ZM106.071 25.1318C103.751 20.584 97.2541 20.584 94.9332 25.1318L76.8269 60.6122C74.0475 66.0604 68.7905 69.8151 62.7339 70.6668L22.9383 76.2599C17.7456 76.9899 15.704 83.4008 19.5189 86.9982L47.778 113.645C52.3765 117.983 54.4752 124.348 53.3712 130.571L46.6301 168.592C45.7292 173.671 51.0196 177.596 55.6183 175.26L92.0028 156.762C97.3442 154.048 103.661 154.048 109.002 156.762L145.387 175.26C149.985 177.596 155.276 173.671 154.375 168.592L147.633 130.571C146.53 124.348 148.628 117.983 153.227 113.645L181.486 86.9982C185.301 83.4008 183.259 76.9899 178.066 76.2599L138.27 70.6668C132.214 69.8151 126.957 66.0604 124.178 60.6122L106.071 25.1318Z" fill="url(#paint3_linear_984_71)"/>
<path d="M51.0898 24.5397L45.8384 11.3073C44.5107 7.96167 39.7758 7.96125 38.4474 11.3067L33.1932 24.5397C33.1354 24.6847 33.0208 24.7994 32.8759 24.857L19.6414 30.1126C16.2965 31.4409 16.2966 36.1756 19.6415 37.5039L32.8759 42.7595C33.0208 42.8173 33.1354 42.9318 33.1932 43.0768L38.4474 56.3098C39.7757 59.6553 44.5106 59.6549 45.8384 56.3092L51.0898 43.0768C51.1476 42.9312 51.2637 42.8171 51.4093 42.7595L64.6449 37.504C67.9899 36.1758 67.9899 31.4408 64.6449 30.1126L51.4093 24.857C51.2637 24.7994 51.1476 24.6853 51.0898 24.5397Z" fill="url(#paint4_linear_984_71)"/>
<path d="M196.373 135.932C196.373 141.687 191.708 146.353 185.952 146.353C180.197 146.353 175.531 141.687 175.531 135.932C175.531 130.176 180.197 125.511 185.952 125.511C191.708 125.511 196.373 130.176 196.373 135.932Z" fill="url(#paint5_linear_984_71)"/>
<path d="M152.444 41.2876C158.432 41.5623 165.48 43.3966 169.468 49.5918L170.152 50.7642C173.29 56.6764 172.063 63.3052 169.973 68.5206C169.936 68.6113 169.888 68.6984 169.85 68.7893L152.461 66.3468C153.329 64.8704 154.011 63.5262 154.496 62.3169C155.339 60.2123 155.395 59.1082 155.367 58.6614C154.971 58.4508 153.945 58.0491 151.687 57.9449C147.976 57.7749 142.595 58.5297 135.738 60.5013C122.128 64.4152 104.518 72.5988 86.3522 84.2902C68.1851 95.9834 53.436 108.62 44.2367 119.388C39.6016 124.814 36.6961 129.397 35.3137 132.846C34.4704 134.95 34.415 136.053 34.4426 136.501C34.8404 136.712 35.8693 137.114 38.1306 137.218C40.2202 137.313 42.8352 137.106 45.9464 136.566L42.8934 153.745C40.9754 153.895 39.1266 153.956 37.3654 153.875C31.378 153.601 24.3292 151.765 20.3417 145.571C16.3562 139.376 17.6077 132.205 19.8369 126.642C22.1652 120.835 26.3446 114.675 31.5687 108.56C42.0899 96.246 58.1925 82.5897 77.3315 70.271C96.4698 57.9533 115.565 48.9469 131.13 44.4709C138.858 42.249 146.195 41.0015 152.444 41.2876Z" fill="url(#paint6_linear_984_71)"/>
<defs>
<filter id="filter0_f_984_71" x="9.57954" y="32.9868" width="193.611" height="154.092" filterUnits="userSpaceOnUse" color-interpolation-filters="sRGB">
<feFlood flood-opacity="0" result="BackgroundImageFix"/>
<feBlend mode="normal" in="SourceGraphic" in2="BackgroundImageFix" result="shape"/>
<feGaussianBlur stdDeviation="16.6736" result="effect1_foregroundBlur_984_71"/>
</filter>
<linearGradient id="paint0_linear_984_71" x1="106.387" y1="66.338" x2="106.387" y2="153.741" gradientUnits="userSpaceOnUse">
<stop stop-color="#F45658"/>
<stop offset="1" stop-color="#420506"/>
</linearGradient>
<linearGradient id="paint1_linear_984_71" x1="106.389" y1="66.3311" x2="106.389" y2="153.734" gradientUnits="userSpaceOnUse">
<stop stop-color="#F45658"/>
<stop offset="1" stop-color="#420506"/>
</linearGradient>
<linearGradient id="paint2_linear_984_71" x1="100.5" y1="15.4695" x2="100.5" y2="182.214" gradientUnits="userSpaceOnUse">
<stop stop-color="#FBD4D4"/>
<stop offset="1" stop-color="#F58384"/>
</linearGradient>
<linearGradient id="paint3_linear_984_71" x1="100.502" y1="15.47" x2="100.502" y2="112.035" gradientUnits="userSpaceOnUse">
<stop stop-color="white"/>
<stop offset="1" stop-color="white" stop-opacity="0"/>
</linearGradient>
<linearGradient id="paint4_linear_984_71" x1="42.1438" y1="8.79943" x2="42.1438" y2="58.8201" gradientUnits="userSpaceOnUse">
<stop stop-color="#FB553E"/>
<stop offset="1" stop-color="#97250C"/>
</linearGradient>
<linearGradient id="paint5_linear_984_71" x1="185.952" y1="125.511" x2="185.952" y2="146.353" gradientUnits="userSpaceOnUse">
<stop stop-color="#FB553E"/>
<stop offset="1" stop-color="#97250C"/>
</linearGradient>
<linearGradient id="paint6_linear_984_71" x1="94.9058" y1="41.2506" x2="94.9058" y2="153.914" gradientUnits="userSpaceOnUse">
<stop stop-color="#FB553E"/>
<stop offset="1" stop-color="#97250C"/>
</linearGradient>
</defs>
</svg>
