<svg width="106" height="106" viewBox="0 0 106 106" fill="none" xmlns="http://www.w3.org/2000/svg">
<path d="M53 0L63.6996 13.0686L79.5 7.10065L82.2318 23.7682L98.8993 26.5L92.9314 42.3004L106 53L92.9314 63.6996L98.8993 79.5L82.2318 82.2318L79.5 98.8993L63.6996 92.9314L53 106L42.3004 92.9314L26.5 98.8993L23.7682 82.2318L7.10065 79.5L13.0686 63.6996L0 53L13.0686 42.3004L7.10065 26.5L23.7682 23.7682L26.5 7.10065L42.3004 13.0686L53 0Z" fill="#535458"/>
<path d="M38.5219 61.6531H29.8805C29.1165 61.6531 28.3839 61.3512 27.8437 60.8138C27.3035 60.2765 27 59.5477 27 58.7878V35.8653C27 35.1054 27.3035 34.3766 27.8437 33.8392C28.3839 33.3019 29.1165 33 29.8805 33H64.4461C65.21 33 65.9427 33.3019 66.4829 33.8392C67.0231 34.3766 67.3265 35.1054 67.3265 35.8653V44.4612" stroke="white" stroke-width="6" stroke-linecap="round" stroke-linejoin="round"/>
<path d="M38.6733 47.5386C38.6733 46.7787 38.9768 46.0499 39.517 45.5126C40.0572 44.9752 40.7899 44.6733 41.5538 44.6733H76.1194C76.8834 44.6733 77.616 44.9752 78.1562 45.5126C78.6964 46.0499 78.9999 46.7787 78.9999 47.5386V70.4611C78.9999 71.221 78.6964 71.9498 78.1562 72.4872C77.616 73.0245 76.8834 73.3264 76.1194 73.3264H41.5538C40.7899 73.3264 40.0572 73.0245 39.517 72.4872C38.9768 71.9498 38.6733 71.221 38.6733 70.4611V47.5386Z" stroke="white" stroke-width="6" stroke-linecap="round" stroke-linejoin="round"/>
<path d="M52.4692 58.9998C52.4692 60.5478 53.0842 62.0324 54.1788 63.127C55.2734 64.2216 56.758 64.8366 58.306 64.8366C59.854 64.8366 61.3386 64.2216 62.4332 63.127C63.5278 62.0324 64.1427 60.5478 64.1427 58.9998C64.1427 57.4518 63.5278 55.9672 62.4332 54.8726C61.3386 53.778 59.854 53.1631 58.306 53.1631C56.758 53.1631 55.2734 53.778 54.1788 54.8726C53.0842 55.9672 52.4692 57.4518 52.4692 58.9998Z" stroke="white" stroke-width="6" stroke-linecap="round" stroke-linejoin="round"/>
</svg>
