<svg width="68" height="68" viewBox="0 0 68 68" fill="none" xmlns="http://www.w3.org/2000/svg">
<path d="M66.218 35.5476L63.6835 36.6172C59.9842 38.1782 58.8116 42.8615 61.3269 46.0292L63.05 48.1998C64.2339 49.6908 63.0274 51.8602 61.1477 51.6201L58.4119 51.2703C54.4189 50.76 51.067 54.2122 51.6758 58.2079L52.0933 60.9455C52.3799 62.8264 50.2507 64.0924 48.7365 62.9417L46.5321 61.2666C43.3152 58.8217 38.6828 60.118 37.2222 63.8704L36.2215 66.4417C35.5338 68.2083 33.0526 68.2318 32.3093 66.4787L31.2276 63.9271C29.649 60.2027 24.977 58.9951 21.8383 61.5001L19.6875 63.2163C18.2101 64.3954 16.0415 63.17 16.2685 61.2841L16.5994 58.5395C17.0818 54.5336 13.6219 51.1458 9.64618 51.7313L6.92233 52.1329C5.05072 52.4085 3.77604 50.2624 4.91248 48.7495L6.56652 46.5469C8.9809 43.3326 7.65992 38.673 3.91323 37.1824L1.34575 36.1609C-0.418171 35.4591 -0.45757 32.9676 1.28368 32.2326L3.81813 31.163C7.51742 29.6019 8.68999 24.9187 6.17475 21.7511L4.45161 19.5804C3.26774 18.0894 4.4742 15.9199 6.35397 16.16L9.08968 16.51C13.0828 17.0201 16.4346 13.5679 15.8257 9.57232L15.4083 6.83472C15.1217 4.95375 17.251 3.68771 18.7651 4.83855L20.9696 6.51351C24.1864 8.95845 28.8189 7.66218 30.2794 3.90978L31.2801 1.33847C31.9678 -0.428125 34.449 -0.451598 35.1923 1.30148L36.274 3.85311C37.8527 7.57759 42.5247 8.7851 45.6633 6.28005L47.8141 4.56389C49.2916 3.38478 51.4601 4.61015 51.2331 6.49603L50.9023 9.24064C50.4198 13.2466 53.8797 16.6344 57.8554 16.0489L60.5793 15.6473C62.4509 15.3717 63.7256 17.5178 62.5892 19.0307L60.9351 21.2333C58.5207 24.4476 59.8417 29.1073 63.5884 30.5978L66.1558 31.6193C67.9198 32.3211 67.9592 34.8126 66.218 35.5476Z" fill="#5F2EA1"/>
<rect x="19.5" y="54.5352" width="29" height="3.5" rx="1.75" fill="#FF4F59"/>
<path d="M42.9743 15.0513L17.0814 40.9441C16.093 41.9326 14.5018 41.9326 13.5374 40.9441H13.5133C10.1622 37.5689 10.1622 32.1203 13.5133 28.7692L30.7511 11.5314C34.1263 8.15619 39.5749 8.15619 42.9502 11.5314C43.9386 12.4717 43.9386 14.087 42.9743 15.0513Z" fill="url(#paint0_linear_1085_482)"/>
<path d="M56.065 24.7361L48.7119 17.3829C47.7234 16.3945 46.1322 16.3945 45.1679 17.3829L19.275 43.2758C18.2866 44.2401 18.2866 45.8313 19.275 46.8198L26.6282 54.1971C30.0034 57.5482 35.452 57.5482 38.8273 54.1971L56.0409 36.9593C59.4644 33.5841 59.4644 28.1114 56.065 24.7361Z" fill="url(#paint1_linear_1085_482)"/>
<defs>
<linearGradient id="paint0_linear_1085_482" x1="32.9742" y1="-5.70515" x2="20.6589" y2="17.6115" gradientUnits="userSpaceOnUse">
<stop stop-color="#FF4F59"/>
<stop offset="1" stop-color="#FFDE00"/>
</linearGradient>
<linearGradient id="paint1_linear_1085_482" x1="45.4703" y1="-1.3853" x2="30.3726" y2="27.1977" gradientUnits="userSpaceOnUse">
<stop stop-color="#FF4F59"/>
<stop offset="1" stop-color="#FFDE00"/>
</linearGradient>
</defs>
</svg>
