<svg width="49" height="49" viewBox="0 0 49 49" fill="none" xmlns="http://www.w3.org/2000/svg">
<path d="M23.658 0.767334C24.1351 0.332518 24.8649 0.332518 25.342 0.767334L27.4516 2.68996C27.815 3.02112 28.3388 3.10852 28.79 2.91329L31.4096 1.77985C32.0021 1.52351 32.6923 1.76045 33.0023 2.32663L34.3734 4.83009C34.6096 5.26129 35.0766 5.51402 35.5667 5.47588L38.4125 5.25444C39.056 5.20436 39.6319 5.65257 39.7413 6.28875L40.2253 9.10175C40.3086 9.58628 40.6682 9.97694 41.1442 10.1L43.9077 10.8146C44.5326 10.9762 44.9318 11.5871 44.8287 12.2243L44.373 15.0421C44.2945 15.5274 44.5078 16.0137 44.9181 16.2846L47.2998 17.8578C47.8384 18.2135 48.0175 18.9209 47.7131 19.4902L46.3672 22.0073C46.1354 22.4408 46.1793 22.97 46.4793 23.3595L48.2211 25.6207C48.6151 26.1321 48.5548 26.8594 48.0821 27.2989L45.9918 29.2426C45.6318 29.5774 45.5014 30.0922 45.6587 30.558L46.572 33.2622C46.7785 33.8738 46.4854 34.5421 45.8955 34.8044L43.2874 35.964C42.8382 36.1638 42.5477 36.6083 42.5453 37.0999L42.5309 39.9542C42.5277 40.5997 42.0335 41.1366 41.3904 41.1932L38.5471 41.4431C38.0573 41.4862 37.6383 41.8123 37.4763 42.2765L36.536 44.9715C36.3233 45.581 35.6816 45.9283 35.055 45.773L32.2845 45.0862C31.8073 44.9679 31.3051 45.1403 31.0012 45.5268L29.2368 47.7704C28.8377 48.2778 28.1179 48.3979 27.5758 48.0476L25.1784 46.4984C24.7655 46.2316 24.2345 46.2316 23.8216 46.4984L21.4242 48.0476C20.8821 48.3979 20.1623 48.2778 19.7632 47.7704L17.9988 45.5268C17.6949 45.1403 17.1927 44.9679 16.7155 45.0862L13.945 45.773C13.3184 45.9283 12.6767 45.581 12.464 44.9715L11.5237 42.2765C11.3617 41.8123 10.9427 41.4862 10.4529 41.4431L7.60957 41.1932C6.96652 41.1366 6.47229 40.5998 6.46905 39.9542L6.45474 37.0999C6.45228 36.6083 6.16185 36.1638 5.71261 35.964L3.10448 34.8044C2.51463 34.5421 2.2215 33.8738 2.42804 33.2622L3.34129 30.558C3.49859 30.0922 3.36824 29.5774 3.0082 29.2426L0.917923 27.2989C0.445192 26.8594 0.384931 26.1321 0.778862 25.6207L2.52071 23.3595C2.82073 22.97 2.86458 22.4408 2.63276 22.0073L1.28685 19.4902C0.982467 18.9209 1.16161 18.2135 1.70024 17.8578L4.08193 16.2846C4.49216 16.0137 4.70546 15.5274 4.62697 15.0421L4.17129 12.2243C4.06823 11.5871 4.46736 10.9762 5.09233 10.8146L7.85576 10.1C8.33175 9.97694 8.69139 9.58628 8.77474 9.10175L9.25865 6.28875C9.3681 5.65257 9.94396 5.20436 10.5875 5.25444L13.4333 5.47588C13.9234 5.51402 14.3904 5.26129 14.6266 4.83009L15.9977 2.32663C16.3077 1.76045 16.9979 1.52351 17.5904 1.77985L20.21 2.91329C20.6612 3.10852 21.185 3.02112 21.5484 2.68996L23.658 0.767334Z" fill="#FFDCAE"/>
<circle cx="16.5" cy="24.5" r="10.5" fill="#672E2F"/>
<circle cx="32.5" cy="24.5" r="10.5" transform="rotate(180 32.5 24.5)" fill="white"/>
<rect x="19.0669" y="18.5" width="5.52391" height="5.13339" rx="0.5" transform="rotate(90 19.0669 18.5)" fill="white"/>
<path d="M17.4187 30.0689C16.9546 30.6446 16.0453 30.6446 15.5812 30.0689L11.2427 24.6877C10.6558 23.9597 11.1993 22.9053 12.1615 22.9053L20.8384 22.9053C21.8006 22.9053 22.3441 23.9597 21.7572 24.6877L17.4187 30.0689Z" fill="url(#paint0_linear_105_9)"/>
<rect x="29.9331" y="30.501" width="5.52391" height="5.13339" rx="0.5" transform="rotate(-90 29.9331 30.501)" fill="#672E2F"/>
<path d="M31.5813 18.9321C32.0454 18.3564 32.9547 18.3564 33.4188 18.9321L37.7573 24.3133C38.3442 25.0413 37.8007 26.0957 36.8385 26.0957L28.1616 26.0957C27.1994 26.0957 26.6559 25.0413 27.2428 24.3133L31.5813 18.9321Z" fill="url(#paint1_linear_105_9)"/>
<defs>
<linearGradient id="paint0_linear_105_9" x1="16" y1="28" x2="17.3522" y2="31.5562" gradientUnits="userSpaceOnUse">
<stop stop-color="#FF4F59"/>
<stop offset="1" stop-color="#FFDD00"/>
</linearGradient>
<linearGradient id="paint1_linear_105_9" x1="33.4779" y1="21.9844" x2="31.9968" y2="18.0519" gradientUnits="userSpaceOnUse">
<stop stop-color="#00CE66"/>
<stop offset="1" stop-color="#FFDD00"/>
</linearGradient>
</defs>
</svg>
