<svg width="66" height="66" viewBox="0 0 66 66" fill="none" xmlns="http://www.w3.org/2000/svg">
<path d="M26.2152 4.25994C28.6457 -1.41998 36.6976 -1.41998 39.1281 4.25994C40.6289 7.76721 44.6552 9.43492 48.1964 8.01614C53.9314 5.71846 59.6249 11.412 57.3272 17.147C55.9084 20.6882 57.5762 24.7144 61.0834 26.2152C66.7634 28.6457 66.7634 36.6976 61.0834 39.1281C57.5762 40.6289 55.9084 44.6552 57.3272 48.1964C59.6249 53.9314 53.9314 59.6249 48.1964 57.3272C44.6552 55.9084 40.6289 57.5762 39.1281 61.0834C36.6976 66.7634 28.6457 66.7634 26.2152 61.0834C24.7144 57.5762 20.6882 55.9084 17.147 57.3272C11.412 59.6249 5.71846 53.9314 8.01614 48.1964C9.43492 44.6552 7.76721 40.6289 4.25994 39.1281C-1.41998 36.6976 -1.41998 28.6457 4.25994 26.2152C7.76721 24.7144 9.43492 20.6882 8.01614 17.147C5.71846 11.412 11.412 5.71846 17.147 8.01614C20.6882 9.43493 24.7144 7.76721 26.2152 4.25994Z" fill="#0ABD64"/>
<path d="M26.23 4.25977C28.6605 -1.42 36.7124 -1.41985 39.1431 4.25977C40.6438 7.76696 44.6702 9.43522 48.2114 8.01661C53.9464 5.71893 59.64 11.4125 57.3423 17.1475C55.9239 20.6884 57.5914 24.7139 61.0981 26.2149C66.7781 28.6454 66.7781 36.6974 61.0981 39.1279C57.5911 40.6288 55.9237 44.6552 57.3423 48.1963C59.64 53.9312 53.9464 59.6248 48.2114 57.3272C44.6703 55.9085 40.644 57.576 39.1431 61.083C36.7126 66.7629 28.6605 66.7629 26.23 61.083C24.729 57.5761 20.7027 55.9084 17.1616 57.3272C11.4268 59.6245 5.73411 53.9311 8.03174 48.1963C9.45029 44.6551 7.78206 40.6287 4.2749 39.1279C3.33044 38.7238 2.54393 38.1634 1.91357 37.5H22.0151V30.5H0.350098C0.922875 28.6931 2.23068 27.0896 4.2749 26.2149C7.78198 24.7141 9.45013 20.6886 8.03174 17.1475C5.73409 11.4126 11.4268 5.71921 17.1616 8.01661C20.7029 9.43539 24.7292 7.76704 26.23 4.25977Z" fill="#EA4857"/>
<path fill-rule="evenodd" clip-rule="evenodd" d="M33 18.9314C28.6015 13.6786 21.2514 12.0552 15.7403 16.8653C10.2292 21.6753 9.45332 29.7174 13.7812 35.4064C17.3796 40.1362 28.2695 50.112 31.8387 53.3409C32.2378 53.7021 32.4376 53.8827 32.6705 53.9536C32.8736 54.0155 33.0961 54.0155 33.2995 53.9536C33.5324 53.8827 33.7319 53.7021 34.1313 53.3409C37.7004 50.112 48.5902 40.1362 52.1887 35.4064C56.5166 29.7174 55.8353 21.6247 50.2295 16.8653C44.6236 12.1058 37.3986 13.6786 33 18.9314Z" fill="url(#paint0_linear_992_205)"/>
<path d="M29.3747 32.7471C30.2084 33.38 30.2084 34.62 29.3747 35.2529L21.5814 41.1689C20.5271 41.9692 19 41.228 19 39.916L19 28.084C19 26.772 20.5271 26.0308 21.5814 26.8311L29.3747 32.7471Z" fill="#753AAD"/>
<rect x="7" y="30.5" width="12" height="7" fill="#0ABD64"/>
<defs>
<linearGradient id="paint0_linear_992_205" x1="51" y1="17.5" x2="42" y2="28.5" gradientUnits="userSpaceOnUse">
<stop stop-color="#EA4857"/>
<stop offset="1" stop-color="white" stop-opacity="0.75"/>
</linearGradient>
</defs>
</svg>
