<svg width="65" height="67" viewBox="0 0 65 67" fill="none" xmlns="http://www.w3.org/2000/svg">
<path d="M4.02922 25.4996L7.94028 22.8327L7.01146 18.1077C5.73583 11.6168 11.315 5.88887 17.6373 7.19856L22.2397 8.15206L24.8374 4.13676C28.4062 -1.37886 36.296 -1.37886 39.8649 4.13676L42.4627 8.15206L47.065 7.19856C53.3873 5.88887 58.9665 11.6168 57.6908 18.1077L56.762 22.8327L60.6731 25.4996C66.0454 29.1638 66.0454 37.264 60.6731 40.9281L56.762 43.5951L57.6908 48.3201C58.9665 54.811 53.3873 60.5389 47.065 59.2293L42.4627 58.2757L39.8649 62.2911C36.296 67.8066 28.4063 67.8066 24.8374 62.2911L22.2397 58.2757L17.6373 59.2293C11.315 60.5389 5.73584 54.811 7.01147 48.3201L7.94028 43.5951L4.02922 40.9281C-1.34308 37.264 -1.34308 29.1638 4.02922 25.4996Z" fill="#0ABD64"/>
<path d="M24.8506 4.13672C28.4196 -1.37884 36.3099 -1.37884 39.8789 4.13672L42.4766 8.15234L47.0781 7.19824C53.4004 5.88861 58.9796 11.6166 57.7041 18.1074L56.7754 22.833L60.6865 25.5C66.0587 29.1641 66.0587 37.2637 60.6865 40.9277L56.7754 43.5947L57.7041 48.3203C58.9797 54.8111 53.4004 60.5392 47.0781 59.2295L42.4766 58.2754L39.8789 62.291C36.3099 67.8065 28.4196 67.8065 24.8506 62.291L22.2529 58.2754L17.6504 59.2295C11.3282 60.5388 5.74983 54.811 7.02539 48.3203L7.9541 43.5947L4.04297 40.9277C2.95066 40.1828 2.07977 39.255 1.43164 38.2178H20.7178V31.0576H0.258789C0.757423 28.8916 2.01839 26.8808 4.04297 25.5L7.9541 22.833L7.02539 18.1074C5.7499 11.6168 11.3283 5.88897 17.6504 7.19824L22.2529 8.15234L24.8506 4.13672Z" fill="#FF4F59"/>
<path fill-rule="evenodd" clip-rule="evenodd" d="M31.9438 19.2788C27.4593 13.9233 19.9655 12.2681 14.3467 17.1723C8.72782 22.0763 7.93677 30.2756 12.3493 36.0759C16.018 40.8981 27.1208 51.069 30.7598 54.361C31.1667 54.7293 31.3704 54.9134 31.6079 54.9857C31.8149 55.0488 32.0418 55.0488 32.2492 54.9857C32.4866 54.9134 32.69 54.7293 33.0972 54.361C36.7361 51.069 47.8388 40.8981 51.5077 36.0759C55.9202 30.2756 55.2256 22.0247 49.5102 17.1723C43.7947 12.3197 36.4284 13.9233 31.9438 19.2788Z" fill="url(#paint0_linear_1073_212)"/>
<path d="M29.1098 33.3644C29.9598 34.0096 29.9598 35.2739 29.1098 35.9191L21.1641 41.9508C20.0892 42.7668 18.5322 42.0111 18.5322 40.6734V28.6101C18.5322 27.2724 20.0892 26.5167 21.1641 27.3327L29.1098 33.3644Z" fill="#753AAD"/>
<path d="M18.5325 31.0742H6.29785V38.2111H18.5325V31.0742Z" fill="#0ABD64"/>
<defs>
<linearGradient id="paint0_linear_1073_212" x1="56.9228" y1="14.251" x2="41.1198" y2="29.0344" gradientUnits="userSpaceOnUse">
<stop stop-color="#EC5865"/>
<stop offset="1" stop-color="#FAD1D5"/>
</linearGradient>
</defs>
</svg>
