<svg width="21" height="20" viewBox="0 0 21 20" fill="none" xmlns="http://www.w3.org/2000/svg">
<path d="M12.5914 3.94805C13.6684 3.94805 14.5414 3.075 14.5414 1.99805H15.4414C15.4414 3.075 16.3144 3.94805 17.3914 3.94805V4.84805C16.3144 4.84805 15.4414 5.72109 15.4414 6.79805H14.5414C14.5414 5.72109 13.6684 4.84805 12.5914 4.84805V3.94805ZM2.19141 9.19805C4.84237 9.19805 6.99141 7.04902 6.99141 4.39805H8.59141C8.59141 7.04902 10.7404 9.19805 13.3914 9.19805V10.798C10.7404 10.798 8.59141 12.9471 8.59141 15.598H6.99141C6.99141 12.9471 4.84237 10.798 2.19141 10.798V9.19805ZM15.1914 11.598C15.1914 13.034 14.0273 14.198 12.5914 14.198V15.398C14.0273 15.398 15.1914 16.5621 15.1914 17.998H16.3914C16.3914 16.5621 17.5555 15.398 18.9914 15.398V14.198C17.5555 14.198 16.3914 13.034 16.3914 11.598H15.1914Z" fill="#111111"/>
</svg>
