<svg width="66" height="66" viewBox="0 0 66 66" fill="none" xmlns="http://www.w3.org/2000/svg">
<path d="M26.2152 4.25994C28.6457 -1.41998 36.6976 -1.41998 39.1281 4.25994C40.6289 7.76721 44.6552 9.43492 48.1964 8.01614C53.9314 5.71846 59.6249 11.412 57.3272 17.147C55.9084 20.6882 57.5762 24.7144 61.0834 26.2152C66.7634 28.6457 66.7634 36.6976 61.0834 39.1281C57.5762 40.6289 55.9084 44.6552 57.3272 48.1964C59.6249 53.9314 53.9314 59.6249 48.1964 57.3272C44.6552 55.9084 40.6289 57.5762 39.1281 61.0834C36.6976 66.7634 28.6457 66.7634 26.2152 61.0834C24.7144 57.5762 20.6882 55.9084 17.147 57.3272C11.412 59.6249 5.71846 53.9314 8.01614 48.1964C9.43492 44.6552 7.76721 40.6289 4.25994 39.1281C-1.41998 36.6976 -1.41998 28.6457 4.25994 26.2152C7.76721 24.7144 9.43492 20.6882 8.01614 17.147C5.71846 11.412 11.412 5.71846 17.147 8.01614C20.6882 9.43493 24.7144 7.76721 26.2152 4.25994Z" fill="#0ABD64"/>
<path d="M26.2305 4.25977C28.661 -1.42001 36.7129 -1.41984 39.1436 4.25977C40.6443 7.76694 44.6707 9.43518 48.2119 8.0166C53.9469 5.71892 59.6405 11.4125 57.3428 17.1475C55.9244 20.6884 57.5919 24.7139 61.0986 26.2148C66.7786 28.6454 66.7786 36.6974 61.0986 39.1279C57.5916 40.6288 55.9242 44.6552 57.3428 48.1963C59.6405 53.9312 53.9469 59.6248 48.2119 57.3271C44.6707 55.9085 40.6443 57.5768 39.1436 61.084C36.7128 66.7634 28.6609 66.7628 26.2305 61.083C24.7295 57.5763 20.704 55.9088 17.1631 57.3271C11.4281 59.6248 5.73455 53.9312 8.03223 48.1963C9.45079 44.6551 7.78255 40.6287 4.27539 39.1279C-1.40423 36.6973 -1.4044 28.6453 4.27539 26.2148C7.78248 24.7141 9.45064 20.6886 8.03223 17.1475C5.73455 11.4125 11.4281 5.71892 17.1631 8.0166C20.7042 9.43501 24.7297 7.76686 26.2305 4.25977Z" fill="#7A30E9"/>
<path d="M44.3318 10.1647L3.81483 30.0748L18.8176 39.7935L23.3332 49.0818L33.7186 47.2568L50.0432 56.0117L44.3318 10.1647Z" fill="url(#paint0_linear_1333_3156)"/>
<path d="M19 40L44.5 10.5L23.5 49L19 40Z" fill="url(#paint1_linear_1333_3156)"/>
<path d="M34 47.5L44.5 10.5L23.5 49L34 47.5Z" fill="url(#paint2_linear_1333_3156)"/>
<defs>
<linearGradient id="paint0_linear_1333_3156" x1="33.5" y1="34.001" x2="50" y2="-1.99902" gradientUnits="userSpaceOnUse">
<stop stop-color="#F3D90A"/>
<stop offset="1" stop-color="white"/>
</linearGradient>
<linearGradient id="paint1_linear_1333_3156" x1="49.5" y1="17" x2="19.5" y2="46" gradientUnits="userSpaceOnUse">
<stop stop-color="#F44B56" stop-opacity="0"/>
<stop offset="1" stop-color="#F44B56"/>
</linearGradient>
<linearGradient id="paint2_linear_1333_3156" x1="55" y1="14" x2="34" y2="49" gradientUnits="userSpaceOnUse">
<stop stop-color="#EE4B4E" stop-opacity="0"/>
<stop offset="1" stop-color="#EE4B4E"/>
</linearGradient>
</defs>
</svg>
