<svg width="71" height="72" viewBox="0 0 71 72" fill="none" xmlns="http://www.w3.org/2000/svg">
<path d="M63.8413 54.5899L60.9778 54.1863C56.7985 53.5972 53.226 57.1784 53.7981 61.3833L54.1897 64.2645C54.4589 66.2438 52.2048 67.5453 50.6357 66.3163L48.3522 64.5274C45.0191 61.9166 40.1388 63.2159 38.5444 67.1385L37.4524 69.8262C36.7018 71.6726 34.099 71.6642 33.3489 69.813L32.2565 67.1182C30.6628 63.1853 25.7827 61.8551 22.4496 64.4437L20.1657 66.2175C18.5965 67.4362 16.3426 66.1203 16.612 64.1427L17.0043 61.2644C17.577 57.0633 14.0048 53.4593 9.82533 54.0215L6.96147 54.4063C4.99417 54.6709 3.69291 52.3999 4.91008 50.8258L6.68186 48.535C9.26748 45.1913 7.96022 40.2792 4.05472 38.6635L1.37876 37.5569C-0.459764 36.7963 -0.45949 34.1788 1.379 33.4302L4.05513 32.3401C7.96099 30.7497 9.26843 25.846 6.68397 22.4861L4.91294 20.1837C3.69623 18.6018 4.99773 16.3392 6.96505 16.6163L9.82842 17.0199C14.0078 17.609 17.5803 14.0279 17.0082 9.82293L16.6166 6.94169C16.3473 4.96242 18.6014 3.66091 20.1705 4.88989L22.4539 6.67887C25.7871 9.28959 30.6675 7.99028 32.2618 4.06773L33.3539 1.3801C34.1044 -0.466444 36.7072 -0.457978 37.4574 1.39326L38.5497 4.08795C40.1434 8.02088 45.0236 9.35107 48.3567 6.76251L50.6405 4.98864C52.2098 3.77 54.4637 5.08595 54.1942 7.06353L53.802 9.94186C53.2292 14.1431 56.8014 17.7469 60.9809 17.1848L63.8447 16.7999C65.8121 16.5354 67.1134 18.8063 65.8962 20.3805L64.1244 22.6712C61.5388 26.015 62.846 30.9271 66.7515 32.5427L69.4275 33.6493C71.266 34.4099 71.2657 37.0274 69.4273 37.776L66.7511 38.8661C62.8452 40.4566 61.5378 45.3602 64.1223 48.7201L65.8933 51.0226C67.1101 52.6045 65.8086 54.867 63.8413 54.5899Z" fill="#7A30E9"/>
<path d="M46.451 13.4382L5.93398 33.3483L20.9368 43.0669L25.4523 52.3552L35.8377 50.5302L52.1623 59.2852L46.451 13.4382Z" fill="url(#paint0_linear_1406_785)"/>
<path d="M21.1191 43.2734L46.6191 13.7734L25.6191 52.2734L21.1191 43.2734Z" fill="url(#paint1_linear_1406_785)"/>
<path d="M36.1191 50.7734L46.6191 13.7734L25.6191 52.2734L36.1191 50.7734Z" fill="url(#paint2_linear_1406_785)"/>
<defs>
<linearGradient id="paint0_linear_1406_785" x1="35.6191" y1="37.2744" x2="52.1191" y2="1.27441" gradientUnits="userSpaceOnUse">
<stop stop-color="#F3D90A"/>
<stop offset="1" stop-color="white"/>
</linearGradient>
<linearGradient id="paint1_linear_1406_785" x1="51.6191" y1="20.2734" x2="21.6191" y2="49.2734" gradientUnits="userSpaceOnUse">
<stop stop-color="#F44B56" stop-opacity="0"/>
<stop offset="1" stop-color="#F44B56"/>
</linearGradient>
<linearGradient id="paint2_linear_1406_785" x1="57.1191" y1="17.2734" x2="36.1191" y2="52.2734" gradientUnits="userSpaceOnUse">
<stop stop-color="#EE4B4E" stop-opacity="0"/>
<stop offset="1" stop-color="#EE4B4E"/>
</linearGradient>
</defs>
</svg>
