<svg width="62" height="62" viewBox="0 0 62 62" fill="none" xmlns="http://www.w3.org/2000/svg">
<path d="M34.7618 1.34215C36.4988 -0.262597 39.2933 0.368126 40.183 2.56575C40.8914 4.31552 42.8799 5.15022 44.6137 4.42563C46.7913 3.51557 49.2029 5.07016 49.2921 7.44151C49.3632 9.3296 50.9481 10.7984 52.8236 10.7144C55.1792 10.6088 56.917 12.8997 56.195 15.1588C55.6201 16.9575 56.6103 18.8833 58.4012 19.4498C60.6506 20.1615 61.5051 22.9124 60.0589 24.7867C58.9075 26.279 59.1835 28.4295 60.6739 29.5785C62.5458 31.0214 62.4139 33.9006 60.418 35.1641C58.8288 36.17 58.3573 38.2859 59.3674 39.8785C60.6361 41.8788 59.5336 44.539 57.2287 45.0392C55.3936 45.4375 54.2315 47.2634 54.6394 49.1077C55.1518 51.424 53.2119 53.5443 50.8759 53.221C49.0161 52.9635 47.3036 54.2793 47.0602 56.1528C46.7545 58.5058 44.211 59.8305 42.1258 58.7226C40.4656 57.8404 38.4092 58.4874 37.5438 60.1641C36.4569 62.27 33.6167 62.6392 32.0338 60.8804C30.7734 59.48 28.6212 59.3801 27.2382 60.6578C25.5012 62.2626 22.7067 61.6319 21.817 59.4342C21.1086 57.6845 19.1201 56.8498 17.3863 57.5744C15.2087 58.4844 12.7971 56.9298 12.7079 54.5585C12.6368 52.6704 11.0519 51.2016 9.1764 51.2856C6.82084 51.3912 5.08301 49.1003 5.80502 46.8412C6.37989 45.0425 5.38973 43.1167 3.59876 42.5502C1.34937 41.8386 0.494889 39.0876 1.94106 37.2133C3.09252 35.721 2.81653 33.5705 1.32611 32.4216C-0.545795 30.9786 -0.413871 28.0994 1.58204 26.8359C3.1712 25.83 3.64267 23.7141 2.63257 22.1215C1.36393 20.1212 2.46635 17.461 4.77126 16.9608C6.60644 16.5625 7.76851 14.7366 7.36056 12.8923C6.8482 10.576 8.78815 8.45571 11.124 8.77904C12.9839 9.03648 14.6964 7.72067 14.9398 5.84718C15.2455 3.49415 17.789 2.16954 19.8742 3.27744C21.5344 4.15955 23.5908 3.51257 24.4562 1.83585C25.5431 -0.270036 28.3833 -0.639247 29.9662 1.11958C31.2266 2.51998 33.3788 2.61987 34.7618 1.34215Z" fill="#7439AD"/>
<path d="M42.3318 8.16376L1.81483 28.0738L16.8176 37.7925L21.3332 47.0808L31.7186 45.2558L48.0432 54.0108L42.3318 8.16376Z" fill="url(#paint0_linear_992_204)"/>
<path d="M17 38L42.5 8.5L21.5 47L17 38Z" fill="url(#paint1_linear_992_204)"/>
<path d="M32 45.5L42.5 8.5L21.5 47L32 45.5Z" fill="url(#paint2_linear_992_204)"/>
<defs>
<linearGradient id="paint0_linear_992_204" x1="31.5" y1="32" x2="48" y2="-4" gradientUnits="userSpaceOnUse">
<stop stop-color="#F3D90A"/>
<stop offset="1" stop-color="white"/>
</linearGradient>
<linearGradient id="paint1_linear_992_204" x1="47.5" y1="15" x2="17.5" y2="44" gradientUnits="userSpaceOnUse">
<stop stop-color="#F44B56" stop-opacity="0"/>
<stop offset="1" stop-color="#F44B56"/>
</linearGradient>
<linearGradient id="paint2_linear_992_204" x1="53" y1="12" x2="32" y2="47" gradientUnits="userSpaceOnUse">
<stop stop-color="#EE4B4E" stop-opacity="0"/>
<stop offset="1" stop-color="#EE4B4E"/>
</linearGradient>
</defs>
</svg>
