<svg width="68" height="68" viewBox="0 0 68 68" fill="none" xmlns="http://www.w3.org/2000/svg">
<path d="M66.218 35.5476L63.6835 36.6172C59.9842 38.1782 58.8116 42.8615 61.3269 46.0292L63.05 48.1998C64.2339 49.6908 63.0274 51.8602 61.1477 51.6201L58.4119 51.2703C54.4189 50.76 51.067 54.2122 51.6758 58.2079L52.0933 60.9455C52.3799 62.8264 50.2507 64.0924 48.7365 62.9417L46.5321 61.2666C43.3152 58.8217 38.6828 60.118 37.2222 63.8704L36.2215 66.4417C35.5338 68.2083 33.0526 68.2318 32.3093 66.4787L31.2276 63.9271C29.649 60.2027 24.977 58.9951 21.8383 61.5001L19.6875 63.2163C18.2101 64.3954 16.0415 63.17 16.2685 61.2841L16.5994 58.5395C17.0818 54.5336 13.6219 51.1458 9.64618 51.7313L6.92233 52.1329C5.05072 52.4085 3.77604 50.2624 4.91248 48.7495L6.56652 46.5469C8.9809 43.3326 7.65992 38.673 3.91323 37.1824L1.34575 36.1609C-0.418171 35.4591 -0.45757 32.9676 1.28368 32.2326L3.81813 31.163C7.51742 29.6019 8.68999 24.9187 6.17475 21.7511L4.45161 19.5804C3.26774 18.0894 4.4742 15.9199 6.35397 16.16L9.08968 16.51C13.0828 17.0201 16.4346 13.5679 15.8257 9.57232L15.4083 6.83472C15.1217 4.95375 17.251 3.68771 18.7651 4.83855L20.9696 6.51351C24.1864 8.95845 28.8189 7.66218 30.2794 3.90978L31.2801 1.33847C31.9678 -0.428125 34.449 -0.451598 35.1923 1.30148L36.274 3.85311C37.8527 7.57759 42.5247 8.7851 45.6633 6.28005L47.8141 4.56389C49.2916 3.38478 51.4601 4.61015 51.2331 6.49603L50.9023 9.24064C50.4198 13.2466 53.8797 16.6344 57.8554 16.0489L60.5793 15.6473C62.4509 15.3717 63.7256 17.5178 62.5892 19.0307L60.9351 21.2333C58.5207 24.4476 59.8417 29.1073 63.5884 30.5978L66.1558 31.6193C67.9198 32.3211 67.9592 34.8126 66.218 35.5476Z" fill="#EA4857"/>
<path d="M23.3486 17.5554C26.1207 11.1441 29.2528 9.68414 35.5586 12.0964H35.5576C35.8537 12.2022 36.171 12.35 36.4883 12.4558L41.165 14.4236C43.7679 15.5028 45.5884 16.6249 46.71 17.9793C46.9003 18.233 47.0691 18.466 47.2383 18.741C47.4287 19.0372 47.5775 19.3337 47.6621 19.6511C47.7467 19.8414 47.8102 20.0106 47.8525 20.2009C48.4027 21.9996 48.0642 24.1793 46.9639 26.9089C46.0116 26.6338 45.0164 26.4861 43.9795 26.4861H23.3271C21.8882 26.4861 20.5333 26.7611 19.2637 27.3113L22.9678 18.4656L23.0518 18.2752L23.1787 17.9373C23.2422 17.7891 23.2851 17.6612 23.3486 17.5554Z" fill="url(#paint0_linear_1074_360)"/>
<path d="M54.3065 36.813V40.9394C54.3065 41.3626 54.2853 41.7858 54.2642 42.1879C53.8621 49.5943 49.7357 53.3186 41.9061 53.3186H25.4004C24.8714 53.3186 24.3847 53.2763 23.898 53.2128C17.1687 52.7684 13.5714 49.1711 13.1058 42.4418C13.0423 41.9339 13 41.4472 13 40.9394V36.813C13 32.5596 15.5817 28.8987 19.2637 27.3116C20.5334 26.7614 21.8877 26.4863 23.3266 26.4863H43.9799C45.0168 26.4863 46.0114 26.6345 46.9636 26.9096C51.1958 28.2004 54.3065 32.1363 54.3065 36.813Z" fill="url(#paint1_linear_1074_360)"/>
<path opacity="0.75" d="M22.9669 18.4678L19.2637 27.3131C15.5817 28.9002 13 32.5611 13 36.8145V30.6143C13 24.6045 17.2745 19.5893 22.9669 18.4678Z" fill="#FAD1D5"/>
<path opacity="0.75" d="M54.3078 30.6128V36.813C54.3078 32.1364 51.1971 28.2005 46.9648 26.9096C48.0652 24.1798 48.4038 22.0003 47.8536 20.2016C47.8113 20.0111 47.7478 19.8418 47.6632 19.6514C51.6203 21.704 54.3078 25.8727 54.3078 30.6128Z" fill="#FAD1D5"/>
<defs>
<linearGradient id="paint0_linear_1074_360" x1="29.5483" y1="25.7589" x2="16.1316" y2="3.84329" gradientUnits="userSpaceOnUse">
<stop stop-color="#0ABD64"/>
<stop offset="1" stop-color="#FFDE00"/>
</linearGradient>
<linearGradient id="paint1_linear_1074_360" x1="41.6242" y1="37.8354" x2="30.8902" y2="97.3202" gradientUnits="userSpaceOnUse">
<stop stop-color="#FAD1D5"/>
<stop offset="1" stop-color="#FF4F59"/>
</linearGradient>
</defs>
</svg>
