<svg width="68" height="68" viewBox="0 0 68 68" fill="none" xmlns="http://www.w3.org/2000/svg">
<path d="M66.218 35.5476L63.6835 36.6172C59.9842 38.1782 58.8116 42.8615 61.3269 46.0292L63.05 48.1998C64.2339 49.6908 63.0274 51.8602 61.1477 51.6201L58.4119 51.2703C54.4189 50.76 51.067 54.2122 51.6758 58.2079L52.0933 60.9455C52.3799 62.8264 50.2507 64.0924 48.7365 62.9417L46.5321 61.2666C43.3152 58.8217 38.6828 60.118 37.2222 63.8704L36.2215 66.4417C35.5338 68.2083 33.0526 68.2318 32.3093 66.4787L31.2276 63.9271C29.649 60.2027 24.977 58.9951 21.8383 61.5001L19.6875 63.2163C18.2101 64.3954 16.0415 63.17 16.2685 61.2841L16.5994 58.5395C17.0818 54.5336 13.6219 51.1458 9.64618 51.7313L6.92233 52.1329C5.05072 52.4085 3.77604 50.2624 4.91248 48.7495L6.56652 46.5469C8.9809 43.3326 7.65992 38.673 3.91323 37.1824L1.34575 36.1609C-0.418171 35.4591 -0.45757 32.9676 1.28368 32.2326L3.81813 31.163C7.51742 29.6019 8.68999 24.9187 6.17475 21.7511L4.45161 19.5804C3.26774 18.0894 4.4742 15.9199 6.35397 16.16L9.08968 16.51C13.0828 17.0201 16.4346 13.5679 15.8257 9.57232L15.4083 6.83472C15.1217 4.95375 17.251 3.68771 18.7651 4.83855L20.9696 6.51351C24.1864 8.95845 28.8189 7.66218 30.2794 3.90978L31.2801 1.33847C31.9678 -0.428125 34.449 -0.451598 35.1923 1.30148L36.274 3.85311C37.8527 7.57759 42.5247 8.7851 45.6633 6.28005L47.8141 4.56389C49.2916 3.38478 51.4601 4.61015 51.2331 6.49603L50.9023 9.24064C50.4198 13.2466 53.8797 16.6344 57.8554 16.0489L60.5793 15.6473C62.4509 15.3717 63.7256 17.5178 62.5892 19.0307L60.9351 21.2333C58.5207 24.4476 59.8417 29.1073 63.5884 30.5978L66.1558 31.6193C67.9198 32.3211 67.9592 34.8126 66.218 35.5476Z" fill="#EA4857"/>
<path d="M46.2394 20.3934C45.7494 20.3117 45.2389 20.2913 44.7081 20.2913H24.2914C23.7198 20.2913 23.1685 20.3321 22.6377 20.4138C22.9235 19.8421 23.3319 19.3114 23.8219 18.8214L30.4573 12.1655C33.2544 9.38884 37.7869 9.38884 40.5839 12.1655L44.1569 15.7792C45.4635 17.0654 46.1577 18.6988 46.2394 20.3934Z" fill="url(#paint0_linear_1084_433)"/>
<path d="M20.2082 36.625C15.6961 36.625 12.0415 40.2796 12.0415 44.7917C12.0415 46.3229 12.4703 47.7725 13.2257 48.9975C14.6344 51.3658 17.2273 52.9583 20.2082 52.9583C23.189 52.9583 25.7819 51.3658 27.1907 48.9975C27.9461 47.7725 28.3748 46.3229 28.3748 44.7917C28.3748 40.2796 24.7203 36.625 20.2082 36.625ZM23.2503 46.282H21.7394V47.8746C21.7394 48.7117 21.0453 49.4059 20.2082 49.4059C19.3711 49.4059 18.6769 48.7117 18.6769 47.8746V46.282H17.1661C16.329 46.282 15.6348 45.5879 15.6348 44.7508C15.6348 43.9137 16.329 43.2195 17.1661 43.2195H18.6769V41.77C18.6769 40.933 19.3711 40.2388 20.2082 40.2388C21.0453 40.2388 21.7394 40.933 21.7394 41.77V43.2195H23.2503C24.0873 43.2195 24.7815 43.9137 24.7815 44.7508C24.7815 45.5879 24.1078 46.282 23.2503 46.282Z" fill="#5F2EA1"/>
<path d="M54.9168 30.5003V40.7087C54.9168 46.8337 50.8335 50.917 44.7085 50.917H25.5781C26.211 50.3862 26.7622 49.7328 27.191 48.9978C27.9464 47.7728 28.3752 46.3232 28.3752 44.792C28.3752 40.2799 24.7206 36.6253 20.2085 36.6253C17.7585 36.6253 15.5739 37.7074 14.0835 39.402V30.5003C14.0835 24.947 17.4318 21.0678 22.6381 20.4145C23.1689 20.3328 23.7202 20.292 24.2918 20.292H44.7085C45.2393 20.292 45.7497 20.3124 46.2397 20.3941C51.5072 21.0066 54.9168 24.9062 54.9168 30.5003Z" fill="#FFC4CA"/>
<path d="M54.9168 31.5205H48.7918C46.546 31.5205 44.7085 33.358 44.7085 35.6038C44.7085 37.8497 46.546 39.6872 48.7918 39.6872H54.9168" fill="#FFC4CA"/>
<defs>
<linearGradient id="paint0_linear_1084_433" x1="38.5" y1="21.5" x2="17" y2="-4.5" gradientUnits="userSpaceOnUse">
<stop stop-color="#0ABD64"/>
<stop offset="1" stop-color="#FFDE00"/>
</linearGradient>
</defs>
</svg>
