<svg width="68" height="68" viewBox="0 0 68 68" fill="none" xmlns="http://www.w3.org/2000/svg">
<path d="M66.218 35.5476L63.6835 36.6172C59.9842 38.1782 58.8116 42.8615 61.3269 46.0292L63.05 48.1998C64.2339 49.6908 63.0274 51.8602 61.1477 51.6201L58.4119 51.2703C54.4189 50.76 51.067 54.2122 51.6758 58.2079L52.0933 60.9455C52.3799 62.8264 50.2507 64.0924 48.7365 62.9417L46.5321 61.2666C43.3152 58.8217 38.6828 60.118 37.2222 63.8704L36.2215 66.4417C35.5338 68.2083 33.0526 68.2318 32.3093 66.4787L31.2276 63.9271C29.649 60.2027 24.977 58.9951 21.8383 61.5001L19.6875 63.2163C18.2101 64.3954 16.0415 63.17 16.2685 61.2841L16.5994 58.5395C17.0818 54.5336 13.6219 51.1458 9.64618 51.7313L6.92233 52.1329C5.05072 52.4085 3.77604 50.2624 4.91248 48.7495L6.56652 46.5469C8.9809 43.3326 7.65992 38.673 3.91323 37.1824L1.34575 36.1609C-0.418171 35.4591 -0.45757 32.9676 1.28368 32.2326L3.81813 31.163C7.51742 29.6019 8.68999 24.9187 6.17475 21.7511L4.45161 19.5804C3.26774 18.0894 4.4742 15.9199 6.35397 16.16L9.08968 16.51C13.0828 17.0201 16.4346 13.5679 15.8257 9.57232L15.4083 6.83472C15.1217 4.95375 17.251 3.68771 18.7651 4.83855L20.9696 6.51351C24.1864 8.95845 28.8189 7.66218 30.2794 3.90978L31.2801 1.33847C31.9678 -0.428125 34.449 -0.451598 35.1923 1.30148L36.274 3.85311C37.8527 7.57759 42.5247 8.7851 45.6633 6.28005L47.8141 4.56389C49.2916 3.38478 51.4601 4.61015 51.2331 6.49603L50.9023 9.24064C50.4198 13.2466 53.8797 16.6344 57.8554 16.0489L60.5793 15.6473C62.4509 15.3717 63.7256 17.5178 62.5892 19.0307L60.9351 21.2333C58.5207 24.4476 59.8417 29.1073 63.5884 30.5978L66.1558 31.6193C67.9198 32.3211 67.9592 34.8126 66.218 35.5476Z" fill="#EA4857"/>
<path opacity="0.6" d="M36.2186 9.22574L36.1476 9.39134L29.2872 25.3123H22.545C20.9364 25.3123 19.4223 25.6198 18.0029 26.2349L22.1429 16.3464L22.2375 16.1335L22.3794 15.755C22.4504 15.5894 22.4977 15.4475 22.5687 15.3292C25.6677 8.16119 29.1689 6.52887 36.2186 9.22574Z" fill="#0ABD64"/>
<path d="M48.9685 25.7853C47.904 25.4778 46.7921 25.3122 45.6329 25.3122H29.2861L36.1466 9.39118L36.2175 9.22559C36.5487 9.34387 36.9036 9.50947 37.2584 9.62775L42.4866 11.8278C45.3964 13.0343 47.4308 14.2881 48.6846 15.8022C48.8975 16.086 49.0868 16.3463 49.2761 16.6538C49.489 16.985 49.6546 17.3162 49.7492 17.671C49.8438 17.8839 49.9148 18.0732 49.9621 18.2861C50.5772 20.2969 50.1987 22.7336 48.9685 25.7853Z" fill="#0ABD64"/>
<path d="M57.1779 36.857V41.47C57.1779 41.9432 57.1543 42.4163 57.1306 42.8658C56.6811 51.1456 52.0681 55.3092 43.3151 55.3092H24.8628C24.2714 55.3092 23.7273 55.2619 23.1832 55.1909C15.6604 54.6941 11.6387 50.6725 11.1183 43.1497C11.0473 42.5819 11 42.0378 11 41.47V36.857C11 32.102 13.8861 28.0094 18.0024 26.2351C19.4218 25.62 20.9358 25.3125 22.5445 25.3125H45.6334C46.7926 25.3125 47.9045 25.4781 48.969 25.7856C53.7004 27.2287 57.1779 31.6288 57.1779 36.857Z" fill="#FAD1D5"/>
<path opacity="0.75" d="M22.1423 16.3457L18.0024 26.2342C13.8861 28.0085 11 32.1011 11 36.8561V29.9247C11 23.2062 15.7787 17.5995 22.1423 16.3457Z" fill="#FAD1D5"/>
<path opacity="0.75" d="M57.1786 29.9261V36.8575C57.1786 31.6293 53.7011 27.2292 48.9697 25.7861C50.1999 22.7344 50.5784 20.2978 49.9633 18.2869C49.916 18.074 49.845 17.8848 49.7504 17.6719C54.1742 19.9666 57.1786 24.627 57.1786 29.9261Z" fill="#FAD1D5"/>
</svg>
