<svg width="1794" height="1667" viewBox="0 0 1794 1667" fill="none" xmlns="http://www.w3.org/2000/svg">
<path d="M1535.94 303.771C1510.66 281.02 1499.8 242.63 1518.87 207.1C1559.51 131.395 1467.49 54.1813 1400 107.353C1368.99 131.781 1330.3 128.431 1303.54 108.63L563.383 535.962L705.982 782.95L1535.94 303.771Z" fill="#FEEEB6"/>
<rect x="622.098" y="1184.97" width="538.439" height="285.217" transform="rotate(-30 622.098 1184.97)" fill="#F3D90A"/>
<path d="M1553.78 736.915C1604.51 743.326 1634.79 795.774 1614.98 842.909L1429.8 1283.49C1404.74 1343.09 1322.05 1349.03 1290.01 1293.53L1001.04 793.035C968.999 737.535 1015.49 668.889 1079.64 676.995L1553.78 736.915Z" fill="url(#paint0_linear_1332_3153)"/>
<rect x="1306.39" y="437.609" width="693.719" height="285.217" transform="rotate(150 1306.39 437.609)" fill="#FEEEB6"/>
<path d="M240.216 963.358C189.491 956.947 159.21 904.499 179.021 857.364L364.199 416.786C389.251 357.182 471.948 351.239 503.991 406.739L792.954 907.238C824.997 962.738 778.502 1031.38 714.358 1023.28L240.216 963.358Z" fill="url(#paint1_linear_1332_3153)"/>
<path d="M258.004 1396.74C283.286 1419.49 294.151 1457.88 275.076 1493.41C234.433 1569.11 326.453 1646.33 393.95 1593.15C424.959 1568.73 463.651 1572.08 490.404 1591.88L1230.56 1164.55L1087.97 917.558L258.004 1396.74Z" fill="#FEEEB6"/>
<rect x="487.609" y="1263.11" width="693.719" height="285.217" transform="rotate(-30 487.609 1263.11)" fill="#FEEEB6"/>
<path d="M1553.79 737.353C1604.51 743.763 1634.79 796.212 1614.98 843.346L1429.8 1283.93C1404.75 1343.53 1322.05 1349.47 1290.01 1293.97L1001.05 793.473C969.005 737.972 1015.5 669.327 1079.64 677.433L1553.79 737.353Z" fill="url(#paint2_linear_1332_3153)"/>
<defs>
<linearGradient id="paint0_linear_1332_3153" x1="1619.95" y1="787.367" x2="1449.43" y2="801.577" gradientUnits="userSpaceOnUse">
<stop stop-color="#FFDE00"/>
<stop offset="1" stop-color="#FF4F59"/>
</linearGradient>
<linearGradient id="paint1_linear_1332_3153" x1="174.043" y1="912.907" x2="426.296" y2="915.127" gradientUnits="userSpaceOnUse">
<stop stop-color="#FEEEB6"/>
<stop offset="1" stop-color="#7A30E9"/>
</linearGradient>
<linearGradient id="paint2_linear_1332_3153" x1="1619.96" y1="787.804" x2="1367.71" y2="785.584" gradientUnits="userSpaceOnUse">
<stop stop-color="#FEEEB6"/>
<stop offset="1" stop-color="#7A30E9"/>
</linearGradient>
</defs>
</svg>
