<svg width="201" height="201" viewBox="0 0 201 201" fill="none" xmlns="http://www.w3.org/2000/svg">
<mask id="mask0_984_86" style="mask-type:luminance" maskUnits="userSpaceOnUse" x="0" y="0" width="201" height="201">
<path d="M200.541 0.458008H0.458008V200.541H200.541V0.458008Z" fill="white"/>
<path d="M100.5 183.672V158.862H46.3109C39.4044 158.862 33.8056 153.263 33.8057 146.357L33.8058 113.009C33.8058 106.103 39.4047 100.504 46.311 100.504H100.5V75.6941C100.5 65.3524 112.338 59.4804 120.572 65.7379L191.61 119.727C198.195 124.731 198.195 134.635 191.61 139.639L120.572 193.628C112.338 199.885 100.5 194.013 100.5 183.672Z" fill="black"/>
</mask>
<g mask="url(#mask0_984_86)">
<path d="M100.503 126.428V101.619H154.693C161.599 101.619 167.198 96.0198 167.198 89.1136V55.7661C167.198 48.8597 161.599 43.261 154.693 43.261H100.503V18.451C100.503 8.10934 88.6651 2.23724 80.4315 8.49476L9.3936 62.4836C2.80891 67.488 2.80891 77.3916 9.3936 82.3959L80.4315 136.385C88.6651 142.643 100.503 136.77 100.503 126.428Z" fill="url(#paint0_linear_984_86)"/>
</g>
<mask id="mask1_984_86" style="mask-type:luminance" maskUnits="userSpaceOnUse" x="33" y="63" width="164" height="134">
<path d="M100.497 183.665V158.855H46.3079C39.4015 158.855 33.8027 153.256 33.8027 146.35L33.8029 113.002C33.8029 106.096 39.4017 100.497 46.3081 100.497H100.497V75.6872C100.497 65.3456 112.335 59.4736 120.569 65.7311L191.607 119.72C198.192 124.724 198.192 134.628 191.607 139.632L120.569 193.621C112.335 199.879 100.497 194.006 100.497 183.665Z" fill="white"/>
</mask>
<g mask="url(#mask1_984_86)">
<g filter="url(#filter0_f_984_86)">
<path d="M100.495 126.42V101.611H154.684C161.59 101.611 167.189 96.012 167.189 89.1057V55.7583C167.189 48.8519 161.59 43.2531 154.684 43.2531H100.495V18.4431C100.495 8.10153 88.6563 2.22942 80.4227 8.48695L9.38481 62.4758C2.80012 67.4802 2.80012 77.3838 9.38481 82.3881L80.4227 136.377C88.6563 142.635 100.495 136.762 100.495 126.42Z" fill="url(#paint1_linear_984_86)"/>
</g>
</g>
<path d="M100.5 183.672V158.862H46.3109C39.4044 158.862 33.8056 153.263 33.8057 146.357L33.8058 113.009C33.8058 106.103 39.4047 100.504 46.311 100.504H100.5V75.6941C100.5 65.3524 112.338 59.4804 120.572 65.7379L191.61 119.727C198.195 124.731 198.195 134.635 191.61 139.639L120.572 193.628C112.338 199.885 100.5 194.013 100.5 183.672Z" fill="url(#paint2_linear_984_86)"/>
<path d="M33.8057 146.353V113.006C33.8065 106.1 39.4051 100.501 46.3109 100.501H100.5V75.6937C100.5 65.3528 112.335 59.4813 120.568 65.7367L191.611 119.722C198.195 124.727 198.194 134.632 191.611 139.636L120.568 193.622C112.593 199.684 101.235 194.366 100.533 184.626L100.5 183.673V158.858H46.3109V152.606H106.753V183.673C106.755 188.842 112.675 191.775 116.791 188.647L187.825 134.662C191.117 132.16 191.117 127.207 187.825 124.705L116.791 70.7111C112.674 67.5823 106.753 70.5229 106.753 75.6937V106.753H46.3109C42.8583 106.753 40.0591 109.554 40.0583 113.006V146.353C40.0583 149.806 42.8577 152.606 46.3109 152.606V158.858L45.0327 158.793C38.7267 158.153 33.8057 152.828 33.8057 146.353Z" fill="url(#paint3_linear_984_86)"/>
<defs>
<filter id="filter0_f_984_86" x="-33.903" y="-32.4343" width="239.441" height="209.733" filterUnits="userSpaceOnUse" color-interpolation-filters="sRGB">
<feFlood flood-opacity="0" result="BackgroundImageFix"/>
<feBlend mode="normal" in="SourceGraphic" in2="BackgroundImageFix" result="shape"/>
<feGaussianBlur stdDeviation="19.1747" result="effect1_foregroundBlur_984_86"/>
</filter>
<linearGradient id="paint0_linear_984_86" x1="85.8302" y1="5.91671" x2="85.8302" y2="138.959" gradientUnits="userSpaceOnUse">
<stop stop-color="#8C71F6"/>
<stop offset="1" stop-color="#6A31A2"/>
</linearGradient>
<linearGradient id="paint1_linear_984_86" x1="85.8214" y1="5.9089" x2="85.8214" y2="138.951" gradientUnits="userSpaceOnUse">
<stop stop-color="#8C71F6"/>
<stop offset="1" stop-color="#6A31A2"/>
</linearGradient>
<linearGradient id="paint2_linear_984_86" x1="192.779" y1="66.2458" x2="85.7056" y2="197.231" gradientUnits="userSpaceOnUse">
<stop stop-color="#EFEBFF"/>
<stop offset="1" stop-color="#784DEF" stop-opacity="0.1"/>
</linearGradient>
<linearGradient id="paint3_linear_984_86" x1="115.177" y1="63.166" x2="115.177" y2="140.207" gradientUnits="userSpaceOnUse">
<stop stop-color="white"/>
<stop offset="1" stop-color="white" stop-opacity="0"/>
</linearGradient>
</defs>
</svg>
