<svg width="33" height="33" viewBox="0 0 33 33" fill="none" xmlns="http://www.w3.org/2000/svg">
<path d="M4.27279 11.992C3.53679 11.992 2.93945 11.3947 2.93945 10.6587C2.93945 6.91643 5.61679 3.7431 9.30567 3.11377L20.9715 1.12266C22.3421 0.891545 23.6612 1.56532 24.2781 2.79732L24.3741 2.98932C24.703 3.64888 24.4328 4.44888 23.7732 4.77599C23.1119 5.10666 22.3155 4.83466 21.9848 4.17688L21.8906 3.98843C21.8052 3.81421 21.6257 3.71643 21.4177 3.75199L9.7519 5.7431C7.34834 6.15377 5.60434 8.22132 5.60434 10.6604C5.60434 11.3964 5.00701 11.9938 4.27101 11.9938L4.27279 11.992Z" fill="#111111"/>
<path d="M19.8283 17.7699C19.8283 14.8295 22.2212 12.4366 25.1617 12.4366H29.6061V11.1032C29.6061 8.40636 27.4141 6.21436 24.7172 6.21436H7.82834C5.13145 6.21436 2.93945 8.40636 2.93945 11.1032V24.4366C2.93945 27.1335 5.13145 29.3255 7.82834 29.3255H24.7172C27.4141 29.3255 29.6061 27.1335 29.6061 24.4366V23.1032H25.1617C22.2212 23.1032 19.8283 20.7104 19.8283 17.7699Z" fill="#111111"/>
<path d="M29.6062 20.4364H25.1618C23.6898 20.4364 22.4951 19.2417 22.4951 17.7697C22.4951 16.2977 23.6898 15.103 25.1618 15.103H29.6062C30.5876 15.103 31.384 15.8995 31.384 16.8808V18.6586C31.384 19.6399 30.5876 20.4364 29.6062 20.4364Z" fill="#111111"/>
</svg>
