<svg width="106" height="106" viewBox="0 0 106 106" fill="none" xmlns="http://www.w3.org/2000/svg">
<path d="M53 0L63.6996 13.0686L79.5 7.10065L82.2318 23.7682L98.8993 26.5L92.9314 42.3004L106 53L92.9314 63.6996L98.8993 79.5L82.2318 82.2318L79.5 98.8993L63.6996 92.9314L53 106L42.3004 92.9314L26.5 98.8993L23.7682 82.2318L7.10065 79.5L13.0686 63.6996L0 53L13.0686 42.3004L7.10065 26.5L23.7682 23.7682L26.5 7.10065L42.3004 13.0686L53 0Z" fill="#535458"/>
<path d="M67.1463 42.25V33.8125C67.1463 33.0666 66.8534 32.3512 66.332 31.8238C65.8105 31.2963 65.1033 31 64.3659 31H36.561C35.0861 31 33.6717 31.5926 32.6288 32.6475C31.5859 33.7024 31 35.1332 31 36.625M31 36.625C31 38.1168 31.5859 39.5476 32.6288 40.6025C33.6717 41.6574 35.0861 42.25 36.561 42.25H69.9268C70.6643 42.25 71.3715 42.5463 71.8929 43.0738C72.4144 43.6012 72.7073 44.3166 72.7073 45.0625V53.5M31 36.625V70.375C31 71.8668 31.5859 73.2976 32.6288 74.3525C33.6717 75.4074 35.0861 76 36.561 76H69.9268C70.6643 76 71.3715 75.7037 71.8929 75.1762C72.4144 74.6488 72.7073 73.9334 72.7073 73.1875V64.75" stroke="white" stroke-width="6" stroke-linecap="round" stroke-linejoin="round"/>
<path d="M76 54.0488V65.0244H65.0244C63.569 65.0244 62.1731 64.4463 61.144 63.4171C60.1148 62.3879 59.5366 60.9921 59.5366 59.5366C59.5366 58.0812 60.1148 56.6853 61.144 55.6562C62.1731 54.627 63.569 54.0488 65.0244 54.0488H76Z" stroke="white" stroke-width="6" stroke-linecap="round" stroke-linejoin="round"/>
</svg>
