<svg width="256" height="256" viewBox="0 0 256 256" fill="none" xmlns="http://www.w3.org/2000/svg">
<g clip-path="url(#clip0_431_171)">
<path d="M256 128C256 198.692 198.692 256 128 256C57.3075 256 0 198.692 0 128C0 57.3075 57.3075 0 128 0C198.692 0 256 57.3075 256 128Z" fill="#F3FCFB"/>
<path d="M84.25 134.25C84.25 130.935 85.567 127.755 87.9112 125.411C90.2554 123.067 93.4348 121.75 96.75 121.75H159.25C162.565 121.75 165.745 123.067 168.089 125.411C170.433 127.755 171.75 130.935 171.75 134.25V171.75C171.75 175.065 170.433 178.245 168.089 180.589C165.745 182.933 162.565 184.25 159.25 184.25H96.75C93.4348 184.25 90.2554 182.933 87.9112 180.589C85.567 178.245 84.25 175.065 84.25 171.75V134.25Z" stroke="black" stroke-width="12" stroke-linecap="round" stroke-linejoin="round"/>
<path d="M121.75 153C121.75 154.658 122.408 156.247 123.581 157.419C124.753 158.592 126.342 159.25 128 159.25C129.658 159.25 131.247 158.592 132.419 157.419C133.592 156.247 134.25 154.658 134.25 153C134.25 151.342 133.592 149.753 132.419 148.581C131.247 147.408 129.658 146.75 128 146.75C126.342 146.75 124.753 147.408 123.581 148.581C122.408 149.753 121.75 151.342 121.75 153Z" stroke="black" stroke-width="12" stroke-linecap="round" stroke-linejoin="round"/>
<path d="M103 121.75V96.75C103 90.1196 105.634 83.7607 110.322 79.0723C115.011 74.3839 121.37 71.75 128 71.75C134.63 71.75 140.989 74.3839 145.678 79.0723C150.366 83.7607 153 90.1196 153 96.75V121.75" stroke="black" stroke-width="12" stroke-linecap="round" stroke-linejoin="round"/>
</g>
<defs>
<clipPath id="clip0_431_171">
<rect width="256" height="256" fill="white"/>
</clipPath>
</defs>
</svg>
