<svg width="88" height="88" viewBox="0 0 88 88" fill="none" xmlns="http://www.w3.org/2000/svg">
<rect width="87.2126" height="87.2126" rx="43.6063" fill="#FAFAFA"/>
<rect x="0.264961" y="0.264961" width="86.6826" height="86.6826" rx="43.3413" stroke="black" stroke-opacity="0.1" stroke-width="0.529922"/>
<rect x="14.1309" y="14.1309" width="58.9501" height="58.9501" rx="29.475" fill="white"/>
<rect x="14.3958" y="14.3958" width="58.4201" height="58.4201" rx="29.2101" stroke="black" stroke-opacity="0.1" stroke-width="0.529922"/>
<path fill-rule="evenodd" clip-rule="evenodd" d="M58.7074 43.6062C58.7074 47.6113 57.1164 51.4523 54.2844 54.2844C51.4523 57.1164 47.6113 58.7074 43.6062 58.7074C39.6011 58.7074 35.76 57.1164 32.9279 54.2844C30.0959 51.4523 28.5049 47.6113 28.5049 43.6062C28.5049 39.6011 30.0959 35.76 32.9279 32.9279C35.76 30.0959 39.6011 28.5049 43.6062 28.5049C47.6113 28.5049 51.4523 30.0959 54.2844 32.9279C57.1164 35.76 58.7074 39.6011 58.7074 43.6062ZM41.6052 37.8299C41.4737 37.9614 41.3176 38.0657 41.1458 38.1369C40.974 38.2081 40.7898 38.2447 40.6038 38.2447C40.4179 38.2447 40.2337 38.2081 40.0619 38.1369C39.8901 38.0657 39.7339 37.9614 39.6024 37.8299C39.4709 37.6984 39.3666 37.5423 39.2954 37.3705C39.2243 37.1987 39.1876 37.0145 39.1876 36.8285C39.1876 36.6425 39.2243 36.4584 39.2954 36.2866C39.3666 36.1147 39.4709 35.9586 39.6024 35.8271C40.2182 35.2113 40.9677 34.7457 41.7926 34.4667C42.6176 34.1876 43.4958 34.1026 44.359 34.2182C45.2221 34.3339 46.047 34.647 46.7694 35.1333C47.4919 35.6196 48.0924 36.266 48.5244 37.0222C48.9563 37.7784 49.2081 38.624 49.26 39.4934C49.312 40.3627 49.1627 41.2323 48.8238 42.0345C48.485 42.8368 47.9657 43.5501 47.3063 44.1189C46.6469 44.6878 45.8652 45.0969 45.0219 45.3145V45.9657C45.0219 46.3412 44.8727 46.7013 44.6072 46.9668C44.3417 47.2323 43.9816 47.3815 43.6062 47.3815C43.2307 47.3815 42.8706 47.2323 42.6051 46.9668C42.3396 46.7013 42.1904 46.3412 42.1904 45.9657V45.0219C42.1904 43.6628 43.2664 42.8096 44.231 42.5925C44.6595 42.4961 45.0598 42.3012 45.4001 42.0234C45.7404 41.7456 46.0113 41.3925 46.1916 40.9919C46.3718 40.5913 46.4564 40.1543 46.4386 39.7153C46.4208 39.2764 46.3011 38.8477 46.089 38.463C45.8769 38.0783 45.5783 37.7482 45.2166 37.4989C44.855 37.2496 44.4402 37.0878 44.0053 37.0264C43.5703 36.965 43.127 37.0056 42.7105 37.1451C42.2939 37.2845 41.9155 37.519 41.6052 37.8299ZM43.6062 53.0445C44.1068 53.0445 44.5869 52.8456 44.9409 52.4916C45.2949 52.1376 45.4938 51.6574 45.4938 51.1568C45.4938 50.1562 45.2949 50.176 44.9409 49.822C44.5869 49.468 44.1068 49.2691 43.6062 49.2691C43.1055 49.2691 42.6254 49.468 42.2714 49.822C41.9174 50.176 41.7185 50.1562 41.7185 51.1568C41.7185 51.6574 41.9174 52.1376 42.2714 52.4916C42.6254 52.8456 43.1055 53.0445 43.6062 53.0445Z" fill="#F79009"/>
</svg>
