<svg width="32" height="32" viewBox="0 0 32 32" fill="none" xmlns="http://www.w3.org/2000/svg">
<path d="M14.222 18.6666C13.486 18.6666 12.8887 18.0693 12.8887 17.3333C12.8887 16.5973 13.486 15.9999 14.222 15.9999C14.4673 15.9999 14.6664 15.8008 14.6664 15.5555V11.111C14.6664 10.375 15.2638 9.77771 15.9998 9.77771C16.7358 9.77771 17.3331 10.375 17.3331 11.111V15.5555C17.3331 17.271 15.9376 18.6666 14.222 18.6666Z" fill="#A4A4A4"/>
<path d="M10.222 14.6666C9.48601 14.6666 8.88867 14.0693 8.88867 13.3333V11.111C8.88867 10.375 9.48601 9.77771 10.222 9.77771C10.958 9.77771 11.5553 10.375 11.5553 11.111V13.3333C11.5553 14.0693 10.958 14.6666 10.222 14.6666Z" fill="#A4A4A4"/>
<path d="M21.7767 14.6666C21.0407 14.6666 20.4434 14.0693 20.4434 13.3333V11.111C20.4434 10.375 21.0407 9.77771 21.7767 9.77771C22.5127 9.77771 23.11 10.375 23.11 11.111V13.3333C23.11 14.0693 22.5127 14.6666 21.7767 14.6666Z" fill="#A4A4A4"/>
<path d="M15.9985 24C14.2509 24 12.5905 23.4453 11.1985 22.4C10.61 21.9573 10.4909 21.1217 10.9336 20.5333C11.3745 19.9466 12.21 19.824 12.8002 20.2684C14.658 21.6622 17.3425 21.6622 19.2002 20.2684C19.7905 19.824 20.626 19.9466 21.0669 20.5333C21.5096 21.1217 21.3905 21.9573 20.802 22.4C19.41 23.4471 17.7496 24 16.002 24H15.9985Z" fill="#A4A4A4"/>
<path d="M4.88802 13.3333C4.15202 13.3333 3.55469 12.736 3.55469 12V8.44443C3.55469 5.74754 5.74669 3.55554 8.44358 3.55554H11.9991C12.7351 3.55554 13.3325 4.15288 13.3325 4.88888C13.3325 5.62488 12.7351 6.22221 11.9991 6.22221H8.44358C7.21869 6.22221 6.22135 7.21954 6.22135 8.44443V12C6.22135 12.736 5.62402 13.3333 4.88802 13.3333Z" fill="#A4A4A4"/>
<path d="M27.1105 13.3333C26.3745 13.3333 25.7771 12.736 25.7771 12V8.44443C25.7771 7.21954 24.7798 6.22221 23.5549 6.22221H19.9993C19.2633 6.22221 18.666 5.62488 18.666 4.88888C18.666 4.15288 19.2633 3.55554 19.9993 3.55554H23.5549C26.2518 3.55554 28.4438 5.74754 28.4438 8.44443V12C28.4438 12.736 27.8465 13.3333 27.1105 13.3333Z" fill="#A4A4A4"/>
<path d="M23.5549 28.4444H19.9993C19.2633 28.4444 18.666 27.8471 18.666 27.1111C18.666 26.3751 19.2633 25.7777 19.9993 25.7777H23.5549C24.7798 25.7777 25.7771 24.7804 25.7771 23.5555V20C25.7771 19.264 26.3745 18.6666 27.1105 18.6666C27.8465 18.6666 28.4438 19.264 28.4438 20V23.5555C28.4438 26.2524 26.2518 28.4444 23.5549 28.4444Z" fill="#A4A4A4"/>
<path d="M11.9991 28.4444H8.44358C5.74669 28.4444 3.55469 26.2524 3.55469 23.5555V20C3.55469 19.264 4.15202 18.6666 4.88802 18.6666C5.62402 18.6666 6.22135 19.264 6.22135 20V23.5555C6.22135 24.7804 7.21869 25.7777 8.44358 25.7777H11.9991C12.7351 25.7777 13.3325 26.3751 13.3325 27.1111C13.3325 27.8471 12.7351 28.4444 11.9991 28.4444Z" fill="#A4A4A4"/>
</svg>

