<svg width="12" height="12" viewBox="0 0 12 12" fill="none" xmlns="http://www.w3.org/2000/svg">
<path d="M7.92313 0.231328L2.65563 1.98133C-0.885209 3.1655 -0.885209 5.09633 2.65563 6.27467L4.21896 6.79383L4.73813 8.35717C5.91646 11.898 7.85313 11.898 9.03148 8.35717L10.7873 3.0955C11.569 0.732998 10.2856 -0.556168 7.92313 0.231328ZM8.10979 3.36967L5.89313 5.598C5.80563 5.6855 5.69479 5.72633 5.58396 5.72633C5.47313 5.72633 5.36229 5.6855 5.27479 5.598C5.10563 5.42883 5.10563 5.14883 5.27479 4.97967L7.49146 2.75133C7.66063 2.58217 7.94063 2.58217 8.10979 2.75133C8.27896 2.9205 8.27896 3.2005 8.10979 3.36967Z" fill="#9700CC"/>
</svg>
