<svg width="42" height="42" viewBox="0 0 42 42" fill="none" xmlns="http://www.w3.org/2000/svg">
<path fill-rule="evenodd" clip-rule="evenodd" d="M13.5247 3.29761C14.423 2.26131 15.5337 1.43051 16.7815 0.861508C18.0294 0.292508 19.385 -0.0012957 20.7564 4.29531e-06C23.6453 4.29531e-06 26.234 1.27731 27.9882 3.29761C29.3564 3.19991 30.7296 3.39781 32.0145 3.87791C33.2995 4.35801 34.466 5.10911 35.435 6.08001C36.4055 7.04881 37.1563 8.21501 37.6364 9.49951C38.1165 10.784 38.3146 12.1568 38.2174 13.5246C39.2533 14.4231 40.0837 15.534 40.1523 16.7818C41.2209 18.0296 41.5144 19.3851 41.5129 20.7564C41.5142 22.1278 41.2203 23.4835 40.1514 24.7313C40.0824 25.9791 39.2515 27.0899 38.2152 27.9882C38.3125 29.356 38.1143 30.7288 37.6343 32.0133C37.1542 33.2978 36.4034 34.464 35.4328 35.4328C34.4641 36.4034 33.2978 37.1542 32.0133 37.6342C30.7288 38.1143 29.356 38.3125 27.9882 38.2152C27.0899 39.2515 25.9791 40.0823 24.7313 40.1513C23.4835 41.2203 22.1278 41.5142 20.7564 41.5128C19.385 41.5142 18.0294 41.2203 16.7815 40.1513C15.5337 40.0823 14.423 39.2515 13.5247 38.2152C12.1566 38.3132 10.7835 38.1156 9.49861 37.6359C8.21361 37.1561 7.04701 36.4055 6.07791 35.4349C5.10711 34.4659 4.35611 33.2994 3.87601 32.0145C3.39591 30.7295 3.19791 29.3564 3.29551 27.9882C2.25961 27.0897 1.42911 25.9788 0.860507 24.731C0.291907 23.4832 -0.00159349 22.1277 6.50666e-06 20.7564C6.50666e-06 17.8675 1.27731 15.2788 3.29761 13.5246C3.20021 12.1568 3.39831 10.784 3.87841 9.49941C4.35851 8.21491 5.10931 7.04871 6.08001 6.08001C7.04871 5.10931 8.21491 4.35851 9.49941 3.87841C10.784 3.39831 12.1568 3.20021 13.5247 3.29761ZM28.4416 16.8946C28.5694 16.7244 28.6618 16.5304 28.7135 16.324C28.7651 16.1176 28.775 15.9029 28.7425 15.6926C28.7101 15.4823 28.6359 15.2806 28.5243 15.0994C28.4128 14.9181 28.2662 14.761 28.093 14.6373C27.9199 14.5136 27.7238 14.4257 27.5162 14.3788C27.3086 14.3319 27.0938 14.327 26.8843 14.3644C26.6748 14.4018 26.4749 14.4806 26.2963 14.5963C26.1177 14.7121 25.9641 14.8623 25.8444 15.0383L18.9554 24.682L15.4981 21.2248C15.1954 20.9427 14.7951 20.7892 14.3815 20.7965C13.9678 20.8038 13.5732 20.9713 13.2806 21.2639C12.9881 21.5564 12.8205 21.9511 12.8132 22.3647C12.8059 22.7784 12.9595 23.1787 13.2415 23.4813L18.0315 28.2713C18.1954 28.4351 18.3929 28.5612 18.6105 28.641C18.828 28.7207 19.0603 28.7522 19.2913 28.7331C19.5222 28.7141 19.7462 28.645 19.9477 28.5307C20.1493 28.4164 20.3235 28.2596 20.4584 28.0712L28.4416 16.8946Z" fill="#039754"/>
</svg>
