<svg width="81" height="82" viewBox="0 0 81 82" fill="none" xmlns="http://www.w3.org/2000/svg">
<path d="M40.4999 0.855469H40.4998C18.3287 0.855469 0.355469 18.8287 0.355469 40.9998V40.9999C0.355469 63.171 18.3287 81.1442 40.4998 81.1442H40.4999C62.671 81.1442 80.6442 63.171 80.6442 40.9999V40.9998C80.6442 18.8287 62.671 0.855469 40.4999 0.855469Z" fill="white"/>
<path d="M80.2793 41.0001C80.2793 19.0306 62.4694 1.2207 40.4999 1.2207C18.5303 1.2207 0.720459 19.0306 0.720459 41.0001C0.720459 62.9697 18.5303 80.7795 40.4999 80.7795C62.4694 80.7795 80.2793 62.9697 80.2793 41.0001Z" stroke="black" stroke-opacity="0.1" stroke-width="0.729897"/>
<path fill-rule="evenodd" clip-rule="evenodd" d="M33.2679 23.5417C34.1662 22.5054 35.2769 21.6746 36.5247 21.1056C37.7726 20.5366 39.1282 20.2428 40.4996 20.2441C43.3885 20.2441 45.9772 21.5214 47.7314 23.5417C49.0996 23.444 50.4728 23.6419 51.7577 24.122C53.0427 24.6021 54.2092 25.3532 55.1782 26.3241C56.1487 27.2929 56.8995 28.4591 57.3796 29.7436C57.8597 31.0281 58.0578 32.4009 57.9606 33.7687C58.9965 34.6672 59.8269 35.7781 60.3955 37.0259C60.9641 38.2737 61.2576 39.6292 61.2561 41.0005C61.2574 42.3719 60.9635 43.7276 60.3946 44.9754C59.8256 46.2232 58.9947 47.334 57.9584 48.2323C58.0557 49.6001 57.8575 50.973 57.3775 52.2575C56.8974 53.542 56.1466 54.7081 55.176 55.6769C54.2073 56.6475 53.041 57.3983 51.7565 57.8783C50.472 58.3584 49.0992 58.5566 47.7314 58.4593C46.8331 59.4956 45.7223 60.3264 44.4745 60.8954C43.2267 61.4644 41.871 61.7583 40.4996 61.7569C39.1282 61.7583 37.7726 61.4644 36.5247 60.8954C35.2769 60.3264 34.1662 59.4956 33.2679 58.4593C31.8998 58.5573 30.5267 58.3597 29.2418 57.88C27.9568 57.4002 26.7902 56.6496 25.8211 55.679C24.8503 54.71 24.0993 53.5435 23.6192 52.2586C23.1391 50.9736 22.9411 49.6005 23.0387 48.2323C22.0028 47.3338 21.1723 46.2229 20.6037 44.9751C20.0351 43.7273 19.7416 42.3718 19.7432 41.0005C19.7432 38.1116 21.0205 35.5229 23.0408 33.7687C22.9434 32.4009 23.1415 31.0281 23.6216 29.7435C24.1017 28.459 24.8525 27.2928 25.8232 26.3241C26.7919 25.3534 27.9581 24.6026 29.2426 24.1225C30.5272 23.6424 31.9 23.4443 33.2679 23.5417ZM48.1848 37.1387C48.3126 36.9685 48.405 36.7745 48.4567 36.5681C48.5083 36.3617 48.5182 36.147 48.4857 35.9367C48.4533 35.7264 48.3791 35.5247 48.2675 35.3435C48.156 35.1622 48.0094 35.0051 47.8362 34.8814C47.6631 34.7577 47.467 34.6698 47.2594 34.6229C47.0518 34.576 46.837 34.5711 46.6275 34.6085C46.418 34.6459 46.2181 34.7247 46.0395 34.8404C45.8609 34.9562 45.7073 35.1064 45.5876 35.2824L38.6986 44.9261L35.2413 41.4689C34.9386 41.1868 34.5383 41.0333 34.1247 41.0406C33.711 41.0479 33.3164 41.2154 33.0238 41.508C32.7313 41.8005 32.5637 42.1952 32.5564 42.6088C32.5491 43.0225 32.7027 43.4228 32.9847 43.7254L37.7747 48.5154C37.9386 48.6792 38.1361 48.8053 38.3537 48.8851C38.5712 48.9648 38.8035 48.9963 39.0345 48.9772C39.2654 48.9582 39.4894 48.8891 39.6909 48.7748C39.8925 48.6605 40.0667 48.5037 40.2016 48.3153L48.1848 37.1387Z" fill="#039754"/>
</svg>
